<mxfile host="Electron" modified="2024-02-16T08:36:10.840Z" agent="Mozilla/5.0 (Windows NT 10.0; Win64; x64) AppleWebKit/537.36 (KHTML, like Gecko) draw.io/21.2.8 Chrome/112.0.5615.165 Electron/24.2.0 Safari/537.36" etag="ap7QXzcLaYTvA-5mwXtq" version="21.2.8" type="device">
  <diagram name="Page-1" id="2XWkQP5S-hDbL94sL5Vg">
    <mxGraphModel dx="2058" dy="1180" grid="1" gridSize="10" guides="1" tooltips="1" connect="1" arrows="1" fold="1" page="1" pageScale="1" pageWidth="3300" pageHeight="4681" background="#999999" math="0" shadow="0">
      <root>
        <mxCell id="0" />
        <mxCell id="1" parent="0" />
        <mxCell id="APLwThIm-aDqV8bCMrbt-1" value="Settings Automatic" style="rounded=0;whiteSpace=wrap;html=1;fontSize=25;fillColor=#dae8fc;strokeColor=#6c8ebf;" parent="1" vertex="1">
          <mxGeometry x="1298" y="140" width="650" height="60" as="geometry" />
        </mxCell>
        <mxCell id="8of9_PI-PHYY76nn5-Ll-1" value="" style="shape=image;verticalLabelPosition=bottom;labelBackgroundColor=default;verticalAlign=top;aspect=fixed;imageAspect=0;image=data:image/png,iVBORw0KGgoAAAANSUhEUgAABIUAAAHJCAYAAAAb7okdAAAAAXNSR0IArs4c6QAAAARnQU1BAACxjwv8YQUAAAAJcEhZcwAADsMAAA7DAcdvqGQAAMUpSURBVHhe7P0NeBRlvid+fwOZ4SWOCB0GEgw0L4J4Vt4iBDcLru4wXL6SHQ9scHbnwZnh7CTXKP7NeP2VS//iX//Aczlx1ZmH+BxmjtnZI2RhPSeo6MM4Rxc4HEEmgLgrgrwEIgkIIeIYEmaCee636q7qruqurnRCkv5+sOm77qrququ6k6Z+3vfvzpo2fUYniIiIiIioz+js5D/hiYj6u6ysLFPqPgPMMxERERER9VIyCGR/EBFR/9cTv/cZFCIiIiIi6oV64maAiIj6hu76TmBQiIiIiIiol+iuf/QTEVH/kc7vCQaFiIiIiIh6AQaCqPeRn0k+0v8gSo90BIeYaJqIiIiI6CpiMMgPXiM7fmTIjx7IUdzH9O8LEjQpNYNCRERERERXQfqCQb37n/MMYBBRX3H1AmnpO3CqwSEGhYiIiIiIeljXA0LR/Rl0ISLq+5yxnK4FiVIJDDEoRERERETUQ4IFgxgA6k84XJD6kqBDkih99FsQ7H3w8/4xKERERERE1ANSDwb0j2AQgyBE1Ff01iBYtFmpty/ZOTEoRERERETUzVILjOhtU9mFgRcior4rpeFeatPUgkOJXp9BISIiIiKibuQ/YJNaMIiBoG7Qj64pPx19W2q3/L1cCgEPShzAsUs1OOT1ugwKERERERF1E3+BG72Nn017XSCoh9rTy86aiPqgtIWmejDIlXToV2S1vza5vR6DQkRERERE3SCdAaGkrxUgOJP6Hpmgd1yVHoq1UT/Xg7GLJHpNQ3pEoLNNGvxJtt4UfBw99rUYFCIiIiIiSrN0BYQ8X0fU951/xHe9pQySEFEy6QmCpeVFAovGduLbka7AEINCRERERERplvqwLr19ygEhz2BQqsdPfGy6yvjmUDLpiYBQN/D31iTfSG3h8mKJgkPRVclf38KgEBERERFRF6UWFNLbeu3iPxgk6lI5bG/l4yT6w2n2TX3pyvu/Cab+KS2fgKsYbNOHjj++rnap92hrqoEhBoWIiIiIiLogXQGhtAaDfLQp+Rb9TRrOuIcuWua9N5Qqf7f7aZCWA/VYa3sFX2ebJPjkFiDSVfH7uQWHUgkMMShERERERBRQOgJCnq8h6p1rXIJBcdv0tDQc3cdLXN1z7I166Ir0twuf/P64D+lXJ5NUWs7W14tcveuqjhwT4IkNDrltY4nLFRRZdN/ewqAQEREREVEA3dZDyCXQ42cbp8RrFR+bJJOGl0iTNLWkX10TosQShwp8SsuLSGl7oW6XtKW+TsV7I7UmQHDIu8dQfL0dg0JERERERClKNSDktrnra8QEexIHg0xJPMVs1YN8HDnJJlev7UGkobW96IT71rXvPxLfoqdRWg7UY63tsqQt9XUqV+d81VGjfyl60dkee5DHfb1zWUoWGGJQiIiIiIgoRf6DQu4BISlZwCd+tVVhnsVTzCY23msikmzi4xXSpC+1tbfooTPOtAvrfd/cC/Wdxqalpb5epGeuSdKjBGqG3kn9Hf1LcR8Wlmi9c1lKFBhiUIiIiIiIKEX+gkL+A0LO5Zj9xEJ0UZT0f0bscjr5eNX0bJIGPdOQnjmXdOlbraVY7jfwvY2vVqZvo27nEk9x0T1ttQduokX7si5LsUGeZIGh2O3tGBQiIiIiIkpRV4JCjn0dAR/JuU90W/0cXYzfzyFm0Y2PTZKzN9ZDWo6TFj11Ubqu91wz6s/cQwQp8vUiaTlSl6WvqYk3CvYS0QpVMkGduOCP+iv5Osm9x5BLHYNCRERERESpSR4U8hEQEpzLtn1EIbpGlPR/qux8CffjWFsnlGQTH6/gU9cPlL629AY9dDb96zA9Iv52+SpKS2N61Rl1ia8zSbpReq5Heg4Tv5GqcQR11N+mPvKXYztrG0uyHkNS3DYMChERERERpSZIUChuH7Fs1TjW2eodryMK2d/6FnJyhuLb3/o2vj3o2xg4cKDcJBD7UXq9Hmtq1w/Uh64qZbj4cEEQ6XmVpHroMOlgwjipE7tduXIFly9fxp///BdcunQJHX/5i6jXr2cPAOmiLktWoMer3i5aZfZhUIiIiIiIyL+rFRD6zne+g2HXDUNzSyvaLv8F7eLxl44rZoNUxd8oaDHtVLy2JeqqRJ8t+2eRn0Hqq+Rn1+33qrtvZQ/E4EHZGDLoW8gdkYMvv7yIP331lXgZ/TOgn0xZ/aXLkldgSIrrHaQ30mUGhYiIiIiI/OtyUEiUo0vOwI9bvdw3NzdX1AxE07mL+PNfOvQK35w3A0S9g5/PpfUTwc8w9VXysxv9zZ6Kb38rG3kjr0X2wG/wxRfnTK14RfXjoH8mdNGU7fVxQaDYZVMQ2w8wJSIiIiIi6rIkASEhupQsICSfO3Htd74jSgNxsrE5QECIqC+Td67Om1mivsX5+z8V8vf9ycYWdFwZoHqK6u+S6PdD5G9d4ayXC6Zeivsesi0yKERERERE5FPsP6xTZd/f9aVEpa7Xz9/KzlZDxmQPoWB4Q01XkxXUcXsQUXKd4vf/V7hu2DD1fWD/fpDPsXS9Fr/WHYNCRERERERp4fYPdPu/0KNlZ3BI/ANflyKvYK3OuSZH5RBiDyHqexj4IUoH+fv/vPgeGJozVC1b3w/62XxvxHynRHjVC9b+DAoREREREfkQ+w9qNz42EWwb2Xcw/0CPHEc8y1nGZFJpb4l6XfCmnK4WfvaI0kl+D8jvA+s7Q39PiIf1daH+MguKLttr3MhdGBQiIiIiIuoyqzt/VOz/rbWWHNXmObLetpEsymnn2y/76SUUGxziTTldLfzsEbmL/T2djLV9lvoeGDRokPmeMF8U4sm+bGoVx/eMbcHtf25w9jEiIiIiIh/c/jGt6Xqvf4RL0WVb8EgUzJ66LnZZPIfHhfG/jzaq2nj65uLa7wxR0xhrckd/Nx1yOvuv/tRmloiCSOUGlyiTuf2s6N/48dx/rv5q0ijUn6wXpazITGNxz+pJ72/V6bJ+ttiXGRQiIiIiIvIhUVAodpVj20iwx1YfVxd9DWsb+RwOj8MnR5vUcjz9j/r/8vxzmDhpoip7sW4ATp85HzlO61fNePSxJzFggBVQor7JurmzPlE9xXmTSZR5vH4GYn8W0/OzctOk76K+/mQk2GP9Xo9fjh4vsi66oNi34fAxIiIiIqIkHEGeFEX3dClFIkH6yVpOfrzoP+ivG/Yd/NWNNyR83DRlknosuG0uvv9v9WNkbqhL50W9jfxMRD8X/vXUPkTunn36/8Spz/bh9PGPXB9yndymt/mX97bgXxfdYpbs9M+HXLfrn7aocvrE/w+E2O+PyLNNfE0Ug0JERERERH3YwIEDcPLUF3jptV14eeM/41f/fSd+/T924P/zj/8TJ45/jrbWP+Hc2TPqcenrP+G/bTuoHn78ZNkPxU3Zwcijq55b9URaXidWbDvl49W/fdms7TlWO4pmzzI13c0tOJNqwCbR7aJ8LbcHUfr8v/7jf8CCuxZj6ox/4/qY/70StU3vkoVfPPEsfv3iapfAUKeqk+seW/msqeu9GBQiIiIiIupTnDflcmBAVtZAnLj4Ner/9CecvPQVGi5fxOd/+RJ/+cs36OwUD/PHMvDbV0zJmwxs/B8P/WeMmTBNPX7wH5apoE4icp//VbfDLGkySGJ5ctUa9Vrd4UT9qUhb5WN24Qz883tvmbXdT573gz9aapaC6k2BFwZ/qGcMHDgQTWe/wFdf/cn1UX/ylNqm99A/G/+y54/4+SMrYwJD0YCQXCe3SRx4vfoYFCIiIiIi6sOufPONeh4ZGoSsb3fgYsdXONfejLNt51R9Vsz9yODh7Riae8kseftXfzVVBVose/buU0GdvuJfFc7HdcOuVb13eoI83r+54x6zFERsEMYKDlkPO7c6u2Trk+nKvkR9Rao/J/HbOwNDhS4Bod6PQSEiIiIiIg8yZ0PivDvx6xzb28rxL2P67shj2JfN32oHU9Tcb2CsTQ6d/RwnvmzClx0taMOf8Oesr1V9p9nFpBpFznVfY+g1el0iv61+DbNmTvMchiV7xlhDtWQPItlL6B/+ezWGD78uMnzL6iUkn998/e9VgMbqvWOVZb31OvZhV/bXl68lt5PsQ8VieyXFkkGt8eGxqmzfTz4s8nWtYW3yIctW2+XD3iZ7W+WjZ1nvf/xnwJt9n9gHEWnJfh4S/8zYA0PdGhCSv+zVL3z53WD95o/9HjGbGPHfO/EYFCIiIiIi6vW8b0isNW1ZX+NbQ/6Cbw3+C7IH/RnfEg9F3BRYASHpxpEFmHTdBLOUmByGdcOkCSoAYu9xI4M5/+VX/9/IUK2Se+9UPYnkELOWli9V3YN/87B6luTzvff/R1W2kwGbjz7+32r97//wP/Hk44+qehl8sQ8Hk0PBLHJImzyOrJe9cxI533wBY/Lz4obC/V//9/87EmSS5LAvq94aAiaX7W2SgSIZ8LJe49XfbUwalOrdrBtdtwf1VW6Jmt0eZOcWOQny8+C1Tyqv0fMYFCIiIiIi6tX83VCoYJB4fGuQfNiCQmJ3+y3PpOET1cMvOSRKBkH+7//r/4zkFJLBHLls9ZiRwRJ70MgvGfixhqT987/sUa8jydd/bu0LqizVvvmOKel9ZI8kP3JDI3C6sQn33r0w0oNJPmTbrR5EkgzwSLJ3lCQDWpK9TTI4Zm0nWe229yRKzrphjH1P/b3HRMmMmTDd14Mk+ZvRKyDkn33IWHQo2Wyxxu1nvfdhUIiIiIiIqB/QASEdDPq2fP62Dgrp4WzWjU8n/vyXv6Ctrd0s+yd70fzb+cVmSfeksT+sgEq6yJ5HbmSPI3k8GdxJ1lNHDn97c+s2Vd63/6Cjvcl6Gfnl1c54boGgvnHTSNR32X/O7I/0iM0h5Mwx5DZdfe/DoBARERERUV8m7m8uX25DUe5E3DL8Bsy6djJm5EzFtCF/per1JvomSMaHvvnmm0hy6kRkryB7759/86+L1NAwSfbWccs1JAMkVs8ai9wntd40wJcXv3K8vhyeFksGdiSv15ZBIzn8S7ZJBoZkgCjVdth9dvS4Y3YxeX1kO4moa65cuYIRw4ebpXijR39XbZNeXoEh/wEjr6TSfS0wxKAQEREREVEfJuM7U6cU4D/f/j3859u+j+Xz7sRP592HnxQvwo1TrsfQoTn47ndHYkRoBL717W+poNCAAclvfOTwKJmHxxpyJYdPWXmB5JCy73/v30bW2XvsyICRrLOCOtZwL3sOn2RiX39v3QGzxpmAWtZbPXXkcDCrXj5UfiAzDExuI4d+yXZY692CWonI15IBLmt/GajyP9uY/xtNokzzX//+v2PHH2rFz5V7/qMPd/7/1DbBuA0Ps8ify9iHP1lZWXh+9ZNxASGLFRj65ZqnTE3vlTVt+oxEV4mIiIiIKGMlnnlM0uvtm8XOPmYt2eutIV36KTrrmN4kWh8Oh/HJsTOy0tMjD/0NZs7QvWbcDBgwQD3k/2m3t+HgR/8Lz/+XX2PAwGxT03tZARwryNN7+b+pJKKe0j0/lzIwlPw7In1umvhd1NfXq9NRvT/F8cV/gukLqpb1uVrPUqI6iUEhIiIiIiIPyf/Br9fbN3PsI8rWkr1el9MTFOrs/Aad34iHWfZL3hJkDRggbg569+ABOeRL9vCRPX/SnbcovaI3WUTUm/Txn03zy/2mSd0TFOLwMSIiIiKiPkwGdWRvn4EpPuQ+vTUgJHsGWcO0ZEBIDv3q3QEhIqJukGq0PwD2FCIiIiIicuFvWIDexr5pfI8gVYpsY9XFPssN1B+5qMoyT07ynkLUG0T/rzsR9TZ9/OfTfEXInkIn6usdvYKssn6K7zkUfYpuY7HK7ClERERERETki7yJcnsQEXWTbv4Vw6AQERERERFRUgz+EPUtsUFb0+WmL+rGXz8MChERERERERERZSAGhYiIiIiIiJTYngWWbvzf9ETUQ/rwz3E3dnJiUIiIiIiIiMjBCg5ZDyLqfZL9nF7l4WLy8Kk0wdre7dGNGBQiIiIiIiJi8IfoKvMK7rhx287a376umyMqXuyHTRbYSba+mzEoRERERERERES9RGxgJwhr/66+ThpZwR97AOgqBoMsWdOmz+gFzSAiIiIi6j06O/3+E7lTbGuKgmM/UbaW7PW6bPaLbGNfNmXxPD4cxn/9H/9OLhARUQb70V//E+pP1ANZWfI/iL8jZbNklnUgzHqWInV6QZUlWc+eQkREREREREREGYhBobTIQsGPszH3F9mYPi8ades/cjF/8Z14YU05aqqtx52Yb9YSERERERERUd/TrUGhoTcNwOQfD1TBEusxXSznftdskHYmOPPjARhqavwJup/x3SyMGKGLQ4oGIFcX+435K5ag/O7xyM8zFURERERERETU53VbUGjovIGYdtcAjBjh7DkzRCxP+lE2ppdkBQvA9EZfdOLCBV1s2/MNzutiP5GLMaN1qW79JpQuW2ce72CHriYiIiIiIiKiPqh7gkI3DcS0IhkM6sSFt69g9y87Io+Db3+jAihDJg1AqNt6DPW0TjT8nT6/j3bqVIH9TtM+bN7Vv8JdRERERERERJmsW4JCuZN17yDZa+bIJ84gyaVPRN3fXcHB311BwxemMo2GmGFcqQq6HxERERERERFRX9QtU9LnlmRj0iQZFLoSrOfMd7NQ8K8HYMSkLAwxVW0XOnH6rSs4HxtIumkgps8V2/kJ6hy9gt21pj1B91P5hwZijMd+3uds9sM3OPh33+CSWM4tGYAx9nM8+g0+q5Xr3A0Vbb4hSZvjjy+OM08c5wb7fp36WP/SiUs+AnPzV5SjfPQ+PP7EbtSbOiIiIqL+jFPSExFRb9KnpqQ/f0R/tamkyykOEZO5iOb+aKAjWCJFchG5zO4VtJdP0P26RJzH0O9mqQTck2LPcdIATPNIdp1bInM0JQ4IxTPHKYrdTyxPEq8nrvNkv7Ol5Q3HWFMkIiIiIiIior6vW3oKSVZvIUX28tn9DRpihpLFuWkg5t4lgxSduLDnG3y+szPSa0b1kpFBEbHutOfQsyxM/sVAjLhg9cbxK+h+USqxdlFW8p5Ctt46p9+OXhN5fjLoI114uwNHPlFFzXZdnPsMENdkgLomR395JS7BtdUmef2POnpZZel954p1nyXvzaV6Cs08gXVMLk1EREQZwl9PIatHT5R7TyHbdladeY5sr5bNdrZ148eH8Tv2FCIiyniyp9CJE/WOnkCyaPUYsteZWke9etYLqix1W08h6XxtBw7u6USbXBiRhTF3yanpdc8U91nHslAggxSCTE59xBYQki59cgUfvS2/HrMwYkr0JPokGaT55RVHkEye39Gjujwk5Dy/oSH9LK+Lc59votfkJl3npu2zb2KG3YlrK6/n3yVLjJ2L8OI7UTJTFJtacEpXEhEREREREVE/0G1BIenSziv4yDbjmApeFA3ENBkcuikmsPNdsU72ornwDT6395Kx+0S8jngackNfns7e5EYyS3aXmhMFaBKLDSRJlw7roJwcxqeCcX6H8o2bixeqy1FTvQRr7x6P/KYT2PIK8wkRERERERER9SfdGhSy6BnHOrD7d1dw+qjp2XKXDAzp9Uquya8zYgCm/SIbc10fA3E10gBdbZea9bO8Zo4cTTI3kRly1uYWUPriG3z0OxmQM8G4H5nr+GPTY8tnkKhRPE7rIhERERERERH1Ez0SFIr4ohMNtVfUsDJpxFz3pMoUIzK0TCfbjgTJfmSCZEevePeu+iIakDsqrvuFC51oGxENEk0vcel1dXI3Hl22DqXLNmHd1hbk541H+c/mImxWExEREREREVHf17NBIcMa1uRw3tTJ6d9/2ZH4kSwZtJzhyxRTEnS/HqEDac7rJhNyX8HBWmf+JVdfdOL8zis48nd6SJ8MEskhfXIWshs8ZyA7jx2bN2LdflHk7GNERERERERE/Uq3BIXk9OlxOYPsrKFidl/IXiziedIAFKQ4jb2bIQFfI+h+3eomOX09cPp3HTqgE3nEJ+S2GyreA88gl7jeR3brQNMQk8iaiIiIiIiIiDJH+oNC3x2AMZN0zqDpP5Y5cJzBITn1+nRr6vXd9h4/nWhQQYosjPmRW86bLOTOE/v+QrymqYnXiQtmmNWYewbE5d/J9QxUBd2vZ+jZx7IwJJVZ18T7cIN4D2RSbzVELPZ9cOQjUk9ERERERERElEGypk2f4ZKhuIu+OwCT7xmgZxPz0Hb0Cj6qjT/00HkDMa0oQfDjgp69q8ExxbqNOPb0Hw2I74mk6Kng3Wb+CryfYbW7bY84L9dp3rNQ8OOBGDNCtP937u33fI2EbdPaxHWRQTb7lPVDbxqA6+cmfh/kbG8HEw7Hy8XSNUuwCPvw+BOcgYyIiIgyQ2enn38id4rtTNFw7CfKesm2nVVnniPbq2WznW3d+PFh/O5//Du1CRERZa4f/fU/4cSJemRl6XiJfJZF8bdccNSZWke9etYLqizJ+u7JKaSSG1/Bwbc70aamoo+SwYujv3MPCElyGntrljJH/hwZ9JD5c8TregaEJDXjlsyX43x9edzTb3/jHdgJul9P+EK0Qc3a5m3IiCyMiZnRzZr17aBov/t5yeuZJD8TERERUYbxFxBSsZuE3FZbdeo58gJWEEj/FV0nHmqBiIgynv5yMN8Psqi/I8ySYf7ngirZ6SVnndY9PYUojUwPIyTq0ZOl8jjJvEPePZWCYk8hIiIiyiz+g0Lx29nromXbP9JNQT2Lh1lS6x116rkT48Pj8bvX2VOIiCjT/ej+f8KJ+hO6D1CW7gmkegDJsun9o5/sy856XdbPkixfldnHKAXfzVLDv9o+SzTDmFjXrP9J0W3yZmFxsXc2JyIiIiIiIiLqWxgU6iOGFA1QM7rFziYmE0YXlFh5mDpxOq29hKTz+GBfiyoVLl+Cmupy87gT81UtEREREREREfVFDAr1dl98g9NmZjQ5o9u0X2Rjru0x7UcD1WxvKgH37xInww6qfvNGPL71BBqbTAURERERERER9XnMKdRH6JnEslRCafssZNasY82fJBpeRkRERER+2fMCJeK2nb0uWtY5g1TJFNSzeJgltd5Rp56ZU4iIiLTuyinEoBARERERkY09sJOI23b2umhZB31UyRTUs3iYJbXeUaeeGRQiIiKNiaaJiIiIiIiIiCht0h4UGjs2bEpERERERBlK9voxbEVDV0SqddcgVbS4VBERUaYT3wv2rwZdlpWmFFlpCvFfQI462UOVPYWIiIiIiIiIiDIQg0JERERERERERBmIQSEiIiIiIiIiogzEoBARERERERERUQZiUIiIiIiIiIiIKAMxKERERERERERElIEYFCLq97KxdMlI1PzNSLwwZ5Cp6ynWsUdgachUERERERERUa/AoFCfMhqPzHoKH826A1NNDfUF0aBMzZIchE0tbrhW14nHYzeYuu4QGoTZ1+li/oxBmK+LGegqvw9ERERERES9DINCRD3pyw7Um2LUFXx+wRS7Q/Nl7P1SFxsPXMYOXcxsV+N9ICKifqbTPEd1dkbr4tcKZr1+cm5r1ZktzIOIiCgq8h0hvjSiZas+yvZ1pNiXY7dlUIio3+vAxk3nUPq35/Doh5dNHREREREREWU6BoX6lJGYMMQUKT3GzcVja8pRU12OFxbnmsp068Bp01PH4cIVNJoi9QS+D0RERERERHZZ06bPiO091CVjx4Zx6lT8wIz+aTSmjpyPtQW5CA+xsug2o755Jx7/9GMcMjVxcm7GIwXzcHsoFMlrUt92GO837MCL586YGmPkEmwpmCJe3ywn0lyL6eK4cTyO95vDm/Bmq6lwMVUce22SY9c3rMeiU842Tx15B8oKinFbZL/k12Tq2HLUFACvHliHF2Wb3Noszs96jXtvfArPiUu+/cizePicXh9P5mBajgeHHMaTu8S5mlq7+SvKUT7TLKAFW57eiI0nzWIazf/+SJSLE2k80IJHP+zQlaEcvHD/UOTjMtb97VeRYV3WtnXvn8Pzn5lKKZStrkV9s9nf0NtfwZbXL2Bjs8ybMxyLTA6hWI7jO5j9cAmPb2pFvVie//1rURIeKNqnNdZfwsu/l+vciLbdMBQPzxyEfHNsuX1tnXgzC+3t0+vswjfkYPHMoSiMtPmK2LdVHOuy41hduy72On/vAxERZS77MDBvnS7d86MVrmXxLEt6Obq/XHbWmWXx3/jx4/G71/+drCQiogz2o/v/CcdPnEBWFpAl/siCsyyeBfuzKsXUS/YyewoFlXMzXp61HDWTZdDEPq1SCOFQCWqKy/FIjqmKGI1HbizHRzNK8KAt2CGFh0zBg5OX4+WRpsLGV0DIgwy2eB3vuRlPYcvY0abG6V7RTn1upsIXnQi7ZrI9ICQluibxPNssHlZQ6c2GXSpgcFtBgqTbOTfhdtmO5kOuAaGedOrLK+q5qcUWuGjuQJN8FutOqQrN2jZveLZ61rKx9N8Nx9r7h+OFOc76MTKY8uVlfOAScEnZdQMxNjQIjy0ZjnJbQEjKDw/FWnuC5ggdUFp7ezQgJMnty+8fgRKPAJXeb6TYzx4QksRxw9dibcyMZem4Lqm8D0RERERERP0dg0KB3IyXZ5TowEfbYbx6ZD2m73rWPNbjyYbDqEcIE4bqrSNGzleBDtlL58kDsfvoO9fbJi/BvapknNtk264W22Vd2y6URupsj9heQiOXoKZA3lU3Y3tDrWOf0iOyjUC44AfxgRqx33OinXI/+7mVHtGBGED2vNF19l5CU8f+AA+qYJA4nv2aHKjFq22yPoQHZ8Scn4O4ZgWmzS7XqLTBdn6t7+E38pINKUaZSyBNuregGGF5Dvb9Yuyo3Yc6FREAGre+2y29hKR6exAi4go+dxnOZG2bf91A9azYZxBzq48kTo7mD7I/Hj+ggyHJDUL5/dei8Lor2PJ+S3T/900uouuGYnHMDF3zv2/1TLqCOvs+r3+Fui8HOgJFduE517ruVyr226Kuy0AsEm2xZkvr2nXRUnkfiIiIiIiI+jsGhQKYOnYebpMFGZzZtylmyNcZvHlqExYdWB8/rOncJpQeeBaLxD5vtsbusw5PqrhQLib66E2T3Gg8UjBFlbYfWYeHTzmHbh0SbVl05LAohXB7yNlbaOoQnVtH7mc/t0Pn3jP7TMGC2EBMzh1YawJQcgjYw/Zr0voxXty33gSGpuCnHr2TpNtCU9SQtOku1+hQzFC3SG+h0M26wuFmLJDNafsU2xIMkcPJ3Xj+iXUoXbYOj24+byq7i8fsVrEzYX12GXXy+To9LEoZIXvtiHq5YVw90Gh6wKTFl3IY1QVs/CwaQKn/7CusM4109NQJ5aBENUYP03revk/zZTy/qcUEeGKI/R6eIYM48fvJ2dI2RvYbhBKrB1DarovP94GIiIiIiKifY1AoZaOxMNcEPw6/5503yBHQiIoENnJG496Rd+DlG8uxZVY5PirWOXJkkCauh1EQ1tCptl2o8sq5c+6Q6nkUzr3JewiWh3FDYgI7Q3P1DXnzTp0TKM4ZvNggA0pJjtdcG5ejyFPrJ3hfBppC81x6O01Vgbv68594v0c96bOvUCoDLY4hXqZXz+9jZwQzPVfkUC5dgfnjB0EOb9ojgxzXDcKt6rMirqUJ0DiGQ3XJFWz5J/e8OtbQKwcTfEF9q2u+IE9J9xPXZr++LvnhQSbYk4brktL7QERERERE1L8xKJQyawaw8ziWqAeKB5mE+eVZT+GjGcvxnMy9I/PmOHISpYkVpBlSjJpicTzXR4nu8RTjUJvuMaOGstmDLTKP0mTd++hkmzNwY/Uuqr/kmfUZuHRe98QQ205SFfES7h/HCjTF9nayekkdxm/8Bph6FWuWrEEoUkO1rPw4HdihghwDcf0IWQ+MVUOmLmOPPfFyD7KCL6n2VPK1nzUrWCQI1HeuCxERZTgrg7QSLeuSWbaqTYJpXTZPpkqmpZZ/iIiI9PeB+nKIfjNEyrJgaiPfQQm+QWzfUwwK9SSZ48dKwtx2WOX5kXlzSk3uHD18rBc4t8m0RSejjgSRZB4lWd1c6937qKed26GGpYUL5kdzFfWiBNNBOZMqD8T115kAigmU6PpBKJKRP1GfKQmSeV2IiIiIiIjSh0GhwFLN/WP1sjHJm/dtUnl+ZN6cQx5DzTwl6GkTYfXKkdPUR5I1ezz2uQ2D0xEqZ44Vk7A6wdTy4aEeWZ8lq/dS23kcVRXpcAbbzsu2RvMcTQ3dKI6TOMF0b1d/7LIKcqjkyTcMQqEoq6FQzZex90szpCqUjTy5cS/IheNI8pyChPtZQ8xswZ2+dl2IiIiIiIh6MwaFUvYx3lXxkhAenJJoOvTR7utk4mNHYmrLaEw0peR8BKQS5dtJRs0+Brwqk2I7AkjxCasth5o/1TfgnseLJr5Od56fQ6d2qtxIenp6k/MpWYJpy7i5eGxNOWqqy/HCYj0Erlewpkm/LhvzVe8XayiUGUJ13UCMTZhMuWdYQRqEB0VmCXMI6d48saL75TimnY/KxtKZg1Spsf5yNLjTR64LERERERFRX8CgUADWrFcqX8+sJXhkpDOfzdSRS7BlxnLU3OgyK5bYZ+3Ym20BI7P9rOV4MGlqIWdAypnvRyautrcjmm/nwRnleFke0xGsEduPFcctjp8iXucHCmFCzKxkCVlTxFvHs7cl52Y8Is9P5WLqjjw/H6NKTuk/5EYsHKuHjvkNPM0vmYVC1a0EyL97AZaO0+WrL5pUuUj2irH1ltlxQiZEzkbReLl0BXuPxSRT7kmmh44cslW+5FrMt32Gwzdcixfk9PZm2aG5FbXqh0hOOz8Cj90gAzxGaBCWLrGmub+M2g/t59dHrgsREREREVEfkDVt+gzP3ENBjB0bxqlTGTBoI+cObJlRbGZFcqOnZrfPxDV1bDlq1LTtLtoO48nzwHMFU7D9yLPx09lbEh5XvMauTY48OgmPKYnjvnp4k3PGsKTnBtSL/d5v2BEzHf9oW/DHTfw1sVjtlNPR+559zOFmvBxJnB1/HbzMX1GO8plmAS3Y8vRGbDxpFq+y+d8fiXLrTaj/Kjo7VigHL9w/VA+twmWs+1v32cLswnNGYO2MgWg80IJHHUEWS7YJxOgp4t1mBPN8DUd7Ynx5GXVfDkJh2O11rWOaxTjubUnndSEiInLTaUvA6a3TnqdTiewnnqOrotvp9WbZ2kY9O+vUdqZ+/Pjx+G+vf09uSUREGew/3f8HnDhxAlniD7LE3/IhV6iyeLLqbXWqVhciz5K1jcSeQkG1vodFu9bjyYbDqJfDtCKaUd9ci9Jd8cGPQ6fWofRIzPYyKGNyDL3peB0P8rgHarG9zXmnLIM0rx7ZERcIkcecLrZ/tVm0y9QpYn+VH0gcNy5I0/oJfiO2TyQ8ZAoenLwcLztSCJ3Bi/ueFee4S7TPVCne1yR9rF5UQgoJpnfU7kOdGo8ENG59t9cEhCTd80Wrs5UjQ6gkW0+Zq6a5FY++/hW21NuHa11B3YGv8Pimr7DZcxiXngr+8fcvoU71NrJcQWO92Ddu6nitz1wXIiIiIiKiXo49hSiG6e2DXSh1TUAtjca9Ny5XeYeC9+xJv3tvfEq0ybs3EhEREZEf7ClERES9DXsKUc8w07knzslzBkcvJe5J1ONy7sBP5Sg5vwmmiYiIiIiIiDIcg0LkKlzwA5UsOnYGtakyafSNVp6i7kganbqpI6M5kLY3ePVuIiIiIuo+Xr2LItUx6yPVkb+ssl6w1xMREUnyKyLy1SAWouVovb1OP+uC1/cUh49RHD0Myyx4cUtQ3ZNckmHLvEWLPv3YLBEREREF4/UPZycz5Mtw7CPK1lKkPlKn97Pq1bNZ51YeP4HDx4iISA8fO378hBoG5hw65izroq3OPOsn86wXVJk9hSjOm59ayaJjklMLOqH1evcE1T1paG40ICSTZos2MSBERERERERE5B97ChERERER2UR69ySke/xYHPuIsrUUqY/U6f2seqtHkFxyK7OnEBERSewpREREREREREREacOgEBERERERERFRBmJQiIiIiIiIiIgoAzEoRERERERERESUgRgUIiIiIiIiIiLKQAwKERERERGlSE4O5sVtlVWn9ovsrJ/d/zazlekKIiLKdJHvA1EQ3yPRrwdn2XqOluLZ6xgUIiIiIiIiIiLKQAwKERERERERERFlIAaFiHpCUQVGVW2IewwrMut9GlxWqfYLlc0zNUS9W+7iSvy8egPuKjYVRERERETUazAoRL1OdokMfFRgsFnuD7Lz8k3Jrg6X95iiHwWlyJmWp4rZo8YgW5WI3OlgTAWmmOXE5uGu6g0qeJPwsSLVYGQYN8ySn9kmtHyua4iIiIiIqPdgUIh6mTAGzxA3kWdPo8PU9AcdtRU4W/aAeaxE61lRmeo5NuzGZbmfuMFuP7C7X10fSjcTjGk6jWZTk1DxHEwwxURaGhtMya8CDFcxob347KSuISIiIiKi3oNBIeplCjBwlHjqZ0Ehp6DnWI+vV8mgUgUu1tabOiI3Jhhz5jTO64rEdlXi18seiDxqtjap6uPro3Xy8drmFD9348ZguHz22w4iIiIiIupRDApR71I0Rw0ba9+3Uy/3R5lwjj1l3Fw8tqYcNdXleGFxrqkkq+fP8T8G+4yF8tM05Ot6HRRKvYcRERERERH1hKxp02e4TVsf2NixYZw61d97MYRxzarVyDlbhbNVO5FdVIqcO+/DYNn7Q+g4W4fW31ai3eM+SObMCS0EWldX4Gu5TcE8DPtJidhf3ogJYv+LbvsXhDH4nodUXplIPhl5rHdex9d73K5519opZRdVYNidhcg2+6ihS9tq0Vq707OXS2rnJ9atsq1LSOxXJvZTZXNuo+x1LgpKEVp5H7IP6muQHuJ9KHO+Dx0H30DrWzVoz6/AqGX50XN3EXd9vMjk1MsKzYLN2TfQvKrGRy+jYO3Un5PZtvekSey3V++XqL0pGY1HZi3Hg0OA7UeexcPnTHWEtb4Zrx5YhxdbTXWM+SvKUT7TLKAFW57eiI3dNExJ5ugpvVt8Cp+uwAfyGOPm4a6flWBCnrlOTXV495VKHI49/rgwppQ8hFtm5uleM5LYtu6t1/HBrgS/K1PaT7Rlja0tCYl2LhPtNEvxZH6hMkxIup1FtHOFs50t+9/AH2tr0DxHXrM81ePo7V1mZSC5WLpmCRaJ06tbvw7Px72Wtb57PwNElDk6O5P987hTbGOKRmQf8WxfZdU7ns02us68lqqLL08YPx7/7R++JyqJiCiT/acf/AHHT5xAVhaQJf7IQmxZLcmyKjrrTJVajvwtKthTKIiCuRg0StxgYwyuKRM3+MuigRYpe1Qhhq2sxDUFpiJGtrpxa0SHuMFWSZVXljmDIvK14m7UKxBauRrD7AEhSRwrZ9lqhErCpsKmS+2UwZoNYh97QEjKw+CFZQitKvVMdJzS+RWMEa9vW5eIY7hVPdoPyCEu+cj2uM4qcPST+0Q763AxXQEhGWSqin8fsqfdp67lsFkyiKPP3Yv9+iTinpxavJ9+8gkFbaf8nKnPif09Ea9h7Vfk8jkL5Axe3FeL7aJ02+RyPJKjay1Tx/5ABYzqG/7BMyDU03TvmUZcOGmSOD9T5gzCyGJMMCK3uAI/fGY1FtgDO1JeIQqXr8YPF7tfz5T3k8O0fAWEhGR5hqwhX/s/TB4QGleKH1bHt3P4zPuw4JkKzFFJputwrEsBIek8Nj7xB/FKEOe/FEvH6VpLePECFTBq3PouA0JERERERClgT6EgHD04mtBe/Su07qnXN+qqV4wMgoiya+8U08MFb6D5nTEq6NIhtrv41k5zgx7G4CKg3d7zx3Y8ta14TR0UCCO75H6EFsp1TfG9PgK3U6yrEuusXkF1VtsEsd81Yr8csV979QO4GDd7VoDzizDH9dsTxpxfx7aVaHbLsZNsfcqs6yKINl78bbTnjOpRJY6lAjAJ229ew/WzkYQ5H/frbhe0nVbvK/1ZuRh5j8TnrOh+s5/L56wrRi7BR5OnAG27ULrvPRySdTl3YMuMYoTtdV7k8LGfzUKhCghswqObuytzTRi3rlmNQvG5rnlrDEqXF6JlfxW21e7EeRWECGNKMXDY3oOnuAI/F9tJatuXxLZqKYzcxfej9G79cxvpeWQJul+E6enTJNr6RE3quXzM8Vu2rkySQ8jqUSSIY737Sk2kl5QMai0Ur6ECRUHb4ab4TtQsHy9ecx8ef2I3VOvEZ+CFZ2Yh315HRNRFkV4/nkyPHpvIPqqXT5Sjh5D1bLbRdea1VF18mT2FiIhIYk+hXiTSg0PeVMukv1agRWrYKW7C39DLrtOGmyTDmC1usvPFzfdKNMsgT+Qmuz4mYCJu8MXNuCSDAWpbtSSJ49ZWonmb7DGTh0GFzt4DQds5uEwGFOpwUdz8X5TDxOwBALHf12a/7Dy3Xg6pnp+N7DUkn/0mYN7zoRo2lp3n1lXIXDcZFElTUmZ9XQQZ0FnlHErVsUe8D9WyH4OQqP3mHDuaUo+q6PezCVca9bKXLrfz7F4VPIwSnxu5X9lK9ZlIW0BIOrcJT8puK0OKsXbsaFEYjUemFCOMZrx6OElASDq5G88/sQ6ly9Z1Y0BIMombxed64fJ8HF+/Eq/JYE0kKFPvDAjJgIkJ7MihU2pbtSTV4/zmSpPMOQ8T5th/joLuZ9PF5M65+fr3Rktj4p+bKStMQGh/FX79RDQgJJ3fVYnX1tehRS6kM8n0rnewbr94zpuFh1UOqVws/dks5Muhg68wIERERERElCoGhQLQw3+a0Ppbj94gDcmDAhiVh45qHahJJLukRN3gy94uXr1DOur2quPFBkeCtXMeBk2Tz3Jo2QaMqnJ5yBw9alsXKZ6fQ77e138C5gZckVO0uwTfrOvW/o6PHkd+FJQiR14XGWBL0sMnYfvNOXY0pXr7GjZT9e9NnNenS+2sR4e6nvdhWNk8l2F59YmPHdCbn+phZOGCH+DlG/Wwse1HvPMIXRVWoEX8TLWsr8DbiXIBCbmLS1TARPa28cqlc/7DvSpoMjw/eqGD7udgkjsHSzJtprJPNuRrXClukbmcZC+gl7yPI9uR7iTTO17Sw8jy716Ax1boYWN165lHiIiIiIgoCAaFUhY2OXaS54RxZQUFEgR57KzAzuW61IMIgdppZsYKLMXzsxus8twk7wkTZQUxZmOw/f64oBTDForrJoetpdgGL9mFs/V5Jcjn46cnjz7HOlxOuV3+prHvajvbq8T7drAJ2dPKEFJBwUoMK5mnXrP7fIyHD+wS72YIt4VCQHOtS+Lpq8yaRStBsMbOmr3r+Iep/dwG3c9uyi365yjYzGGmR1SSvEO5c2br67Fvt2cvIL89jlJ3BM8/vU/8ZhuOwpmiFfv/4JJ4moiIiIiI/GBQKGXm5vygHrrkKsEwKCvw4S/I4zOwE+l9Yt8oWDutIWdyqNrZssQPtzw9qZ2fXbAgVvs+2WcgDwN1s4VuSC4tJA/OmZ48CdtvzjFJYMeVz2nsu97OerRXVeDs6pW4uK1OtNMkFlfBIY/hSmkwNXSjaJkxdCSmmmJvYQVa/AVrwhghR8KJayyTUnuKm6496H52Pl/Di8+hZ8mDVz57HAUUnjMekR/50SOinx0iIiIiIkoJg0KpMjfniXLCDL5HD6+Kv4HvYi8jV2Fcc6e8YZVtst2gdamdMrgQ5DarK+fnI4jlplEHWCLtLbpfJcHu2PZ6aq/TZX568vjr7ePGbz6h5Hy2oaEe7TJflQwArq5C+1kZHHrIc0a9Lhm5BDUFuofQkw3NtvxCvUUXAy2uwrj1Hv1zm1pPmmT7mZ4+fmYOc5Mw4JQKfz2OAim+E2vv1j2E1m1tseUXIiIiIiKiVDEolCKrJ41nThg5u5PKyeM2RCjVoIAZHoVCDCpSFXGySx5SQRCZQ6bVdryg7exo0lGH7BlzdS8iF9lFYY91wYMekV5LqWrYjcviGun2mgBZGpNLO9l7JNmFo8mdE527j0CdF90DyG+wLUg75+k8QmbJQSYlfye2R1a63IyX5exjOIwnP/0Yb576B7zaJlpasBwvj9RbJCRnH1tTjprqcrzQbYGBVAMc9bhwRj4XYmKxqoiTu/ghNWOazMnzYaQnTdD9bKyePgGl1iMqD8OvN0WHcDQJdbIk0ym/f5PxmJx9DCew7qUj2LH5XWxpkvmFluAxj2tGRERERETeGBRKkb45BwYv24CQI9eKvOGujEwB315dGd9TJcGwMi96eJQ8XiWGFdl678ip4cXxQjJ3jriJi00mHbidZkYvmWw4tKrUkasn2zrmstXIcQtSBTi/ONNKcI3tPPUxRTvMcjwrr9AYDDYBsrQll7bpaJIzPsnrWeG8JkWlGLZqtQmw+Qv4yABW5DUKxPthf19dWT2wCpFjG8KVXTTPmUtJCNpOlZhb5hFapT9njuCQeA+Gmd5o6XbvjSW4TTxvP7IJb6qaM3jxsMwvBNw2eQnuVXXe5pfo6eglmXh46ThdTqsAs3kd/qP+uZ2wvBJ3Fdve33HzcOuKSpTerX9u615xTtUedL84M0twq23/XLV/KWT4zZv/HlHNjfpzNmF5BabYrnlucSnuWrMaC2QSaiFZj6NU37/5K74nfgpkYul3sEPVnMfGV2R+IfHTsfxOzFd1RETdT00bbxOZjj5GpD722c5aZfsrUlbbqyUiIsp44vtAfi/o/7SYcjJuX0NZ06bP8LGrf2PHhnHqVHf00ugNwrhG3FjniJsymWtF36jHk0mW3fLtyN45Mhjjud7D4LINkZv5eE1ojZsmPD3t9NIhEzg7psY3Ap6fZtrs0VaZ48graXR2iRUcE+Q07GnMJRQ1D8OqTC+bWGfrcPFAPoYthMt7YefxGnKmsFWJA1mOc7SJvy7B2+l1jAhxbeWMZmkLuI1cgo9kL6HmWkz/9GNTqU0dWx4ZUha7zm7+inKUmwAE5LTkT3fDLFTFFfj58kKVZPq1zf4/11NWbIgER+I1oe7pCnzg0tag+2lh3LpmdSTQEktOcx9NlJ142wg5w9gTsUGoebir2vQGitVUh3f35WPB3UjS1hTfv+I7USN7Ce3/A0pfOmIqtfDipZEhZbHriIiC8AryWGLXO5ZF2VqyB4VUKeZZrY8riz+6QtVNmDAe/+0fFsi9iIgog/2nH7yL48dPICsrC+Iv9SxKScqqoOosVtnahj2FUmINj6oVN/F6lib7DXLHwTdwcbV7AmYp6ZAuD+1V4jWr68xQMuNsE9q3iZv0MrcgRNfaiT2VJo+M7g1gieznERgIen5aPb4WbW0VbbXrkIEMccxEs4hZU/LLoXDpTC7ttFO0o8rZPvkeVK8U17jSHD/Z8C75Gm+I62oWBXl+re94zxRm6aj9lXofo/T7bx8yqAVvZ0etTDCt97W3p8PaP50BoZw7sMU2bCzWoVPr8KQcqxUqwZYE+YV21O5DnTnVxq3vdsu05EFn0Tr80gOoWV+HFsfb1oTjW6tQs8w7WBJ0P60eHzyxEnX77TuLtstAzdP2gJBkhsUl49pDaifefrrKeRzZxvUrUfNEpRlml7zHke/3b9xcvGAbNharfvNGrNsvCjO/143DCImIiIiI+h/2FEpFQSlCK+8DAvWE6UF9pZ3pkmnnS0RERN3K0fPHRex6x7Ls4RMpmpJVF/Os1seVxR9doerYU4iIiCT2FOoFsgtnq1wrwXrC9Jy+0s60kPluVt6H7G5LLk1ERERERETUPzEolAKdvDkd04J3r77SzkAK7ImWZQ8hmT8nPtE2ERERERERESXGoJBv1gxQfqcFv1r6SjuDCOOan6zGqKoN6hFadp/qEdVenSi5MxERERERERG5YVDINyt5cxemW+8RfaWdXecnCTURERERERERuWOiaSIiIiIiG0fi6DgmEbSNfXu3cqROPDsSSVt1pqy2U2VZp9cx0TQREUlWommdQNqeTDqmLB5mUf5tW4551gvsKURERERERERElIkYFCIiIiIiIiIiykAMChERERERERERZSAGhYiIiIiIiIiIMhCDQkREREREREREGYhBISIiIiIiIiKiDMSgEBERERERERFRBmJQiIiIiIiIiIgoAzEoRNQTiiowqmpD3GNYkVnv0+CySrVfqGyeqSHq3XIXV+Ln1RtwV7GpICLKYJ3mOarTVqdL6m/zl/5DRESkvxqi3xRe3w6J1jlZWzEoRL1OdokMfFRgsFnuD7Lz8k3Jrg6X95iiHwWlyJmWp4rZo8YgW5WI3OlgTAWmmOXE5uGu6g0qeJPwsSLVYGQYN8ySn9kmtHyua4iIiIiIqPdgUIh6mTAGzxA3kWdPo8PU9AcdtRU4W/aAeaxE61lRmeo5NuzGZbmfuMFuP7C7X10fSjcTjGk6jWZTk1DxHEwwxURaGhtMya8CDFcxob347KSuISIiIiKi3oNBIeplCjBwlHjqZ0Ehp6DnWI+vV8mgUgUu1tabOiI3Jhhz5jTO64rEdlXi18seiDxqtjap6uPro3Xy8drmFD9348ZguHz22w4iIiIiIupRDApR71I0Rw0ba9+3Uy/3R5lwjj1l3Fw8tqYcNdXleGFxrqkkq+fP8T8G+4yF8tM05Ot6HRRKvYcRERERERH1hKxp02f4y0Lk09ixYZw61d97MYRxzarVyDlbhbNVO5FdVIqcO+/DYNn7Q+g4W4fW31ai3eM+SObMCS0EWldX4Gu5TcE8DPtJidhf3ogJYv+LbvsXhDH4nodUXplIPhl5rHdex9d73K5519opZRdVYNidhcg2+6ihS9tq0Vq707OXS2rnJ9atsq1LSOxXJvZTZXNuo+x1LgpKEVp5H7IP6muQHuJ9KHO+Dx0H30DrWzVoz6/AqGX50XN3EXd9vMjk1MsKzYLN2TfQvKrGRy+jYO3Un5PZtvekSey3V++XqL0puPfGp/BcCNh+5Fk8fM5UxhmNR2Ytx4NDDuPJXZvwpqm1m7+iHOUzzQJasOXpjdjYTcOUZI6e0rvFp/DpCnwgjzFuHu76WQkm5Jnr1FSHd1+pxOHY448LY0rJQ7hlZp7uNSOJbeveeh0f7ErwuzKl/URb1tjakpBo5zLRTrMUT+YXKsOEpNtZRDtXONvZsv8N/LG2Bs1z5DXLUz2O3t5lVgZgvc9169fhec/XycXSNUuwKO8E1i17BztMLRFREJ2dif553CnWm6Jh396t7Hw2+4u/1J+YstomstyJCRMm4O//YYHcnYiIMth//MG7OH78BLKyIB5ZkH/kgi4LqqzXib9VWT+rQtyzJMvsKRREwVwMGiVusDEG15SJG/xl0UCLlD2qEMNWVuKaAlMRI1vduDWiQ9xgq6TKK8ucQRH5WnE36hUIrVyNYfaAkCSOlbNsNUIlYVNh06V2ymDNBrGPPSAk5WHwwjKEVpV6JjpO6fwKxojX93MjKziGW9Wj/YAc4pKPbI/rrAJHP7lPtLMOF9MVEJJBpqr49yF72n3qWg6bJYM4+ty92K9PIu7JqcX76SefUNB2ys+Z+pzY3xPxGtZ+RS6fswDebNgl3kHgtoI7MFVXxcu5CbcPEc/Nh1wDQj1N955pxIWTJonzM2XOIIwsxgSEcosr8MNnVmOBPbAj5RWicPlq/HCx+/VMeT85TMtXQEhIlmfIGvK1/8PkAaFxpfhhdXw7h8+8DwueqcAclWS6Dse6EBCSdtTuE1ceKLxnrvip9jBuEmbLw+0/xoAQEREREZFP7CkUhKMHRxPaq3+F1j31+kZd9YqRQRBRdu2dYnq44A00vzNGBV06xHYX39ppbtDDGFwEtNt7/tiOp7YVr6mDAmFkl9yP0EK5rim+10fgdop1VWKd1SuozmqbIPa7RuyXI/Zrr34AF+NmzwpwfhHmuH57wpjz69i2Es1uOXaSrU+ZdV0E0caLv432nFE9qsSxVAAmYfvNa7h+NpIw5+N+3e2CttPqfaU/Kxcj75H4nBXdb/Zz+ZwFlKy3kF7fjFcPrMOLraYylhw+9rNZKMwDGrduwqObuytzTRi3rlmNQvG5rnlrDEqXF6JlfxW21e7EeRUICmNKMXDY3oOnuAI/F9tJatuXxLZqKYzcxfej9G79cxvpeWQJul+E6enTJNr6RE3quXzM8Vu2rkySQ8jqUSSIY737Sk2kl5QMai0Ur6ECRUHbESNZbyG9vnt7ixFR5rB69rjTPXrs7Nu7lZ3PZn/xl+4N5CyrbSLL7ClEREQaewr1IpEeHPKmWib9tQItUsNOcRP+hl52nTbcJBnGbHGTnS9uvleiWQZ5IjfZ9TEBE3GDL27GJRkMUNuqJUkct7YSzdtkj5k8DCp0/j/0oO0cXCYDCnW4KG7+L8phYvYAgNjva7Nfdp7b/7NP9fxsZK8h+ew3AfOeD9Wwsew8t65C5rrJoEiakjLr6yLIgM4q51Cqjj3ifaiu0wuJ2m/OsaMp9aiKfj+bcEV2mUigy+08u1cFD6PE50buV7ZSfSbSERCSIr2FQjfrCoebsSAknto+xTavgJB0cjeef2IdSpet68aAkGQSN4vP9cLl+Ti+fiVek8GaSPCh3hkQkgETE9iRQ6fUtmpJqsf5zZUmmXMeJsyx/xwF3c+mi8mdc/P1742WxsQ/N1NWmIDQ/ir8+oloQEg6v6sSr62vQ4tcSFOS6UhvoVsm6wqHySiSwwibTngEyoiI0kVGcBKQAZ2I2G3NsvNJUWX5l9k/smx/JiKizGZ9Ocj/9JNZlv8bISryVRR5tq+Vi7ZlUWZQKAA9/KcJrb/16A3SkDwogFF56KjWgZpEsktK1A2+7O3i1Tuko26vOl5scCRYO+dh0DT5LIeWbcCoKpeHzNGjtnWR4vk55Ot9/SdgbsAVOUW7S/DNum7t7/joceRHQSly5HWRAbYkPXwStt+cY0dTCtdFCZup+vcmzuvTpXbWo0Ndz/swrGyey7C8+sTHTlXrJ3i/TTyH5uGRHF0VMXIqbhNP9ec/wSFdc3VZgRbxM9WyvgJvJ8oFJOQuLlEBE9nbxiuXzvkP96qgyfD86IUOup+DSe4cLMm0mco+2ZCvcaW4RQVh3kDNS97Hke1IW5Lpk0exV8bDZhZi6ThdFVE8UfzGAhr3HRWfUiIiIiIi8otBoZSFTY6d5DlhXFlBgQRBHjsrsHO5LvUgQqB2mpmxAkvx/OwGqzw3yXvCRFlBjNkYbL8/LijFsIXiuslhaym2wUt24Wx9Xgny+fjpyaPPsQ6XU26Xv2nsu9rO9irxvh1sQva0MoRUULASw0rmqddMvzN4sUFmrQnh9tBoXaWMxiMFU8TzYfzm1BlddbVZs2glCNbYWbN3Hf8wtZ/boPvZTblF/xwFmznM9IhKkncod85sfT327fbsBeS3x5F/57HxrRPieThmz7HPNJeLpfeMF88nUNutvcWIiIiIiPofBoVSZm7OD+qhS64SDIOyAh/+gjw+AzuR3if2jYK10xpyJoeqnS1L/HDL05Pa+dkFC2K175NDofIwUDdb6Ibk0kLy4JzpyZOw/eYckwR2XPmcxr7r7axHe1UFzq5eiYvb6kQ7TWJxFRzyTPEb3LkdeLVNtKpgPu41Vb0twbRkBVr8BWvCGKFiXDoptae46dqD7mfn8zW8+Bx6ljx45bPHUap27cWWJvEr7+7ZmG+qmGCaiIiIiCg4BoVSZW7OE+WEGXyPHl4VfwPfxV5GrsK45k55wyrbZLtB61I7ZXAhSACgK+fnI4jlplEHWCLtLbpfJcHu2PZ6aq/TZX568vjr7ePGbz6h5Hy2oaEe7TJflQwArq5C+1kZHHrIc0a94M5g23nZJ2UKFozUNVNDN4pPUjNebfhYV1x1XQy0uArj1nv0z21qPWmS7Wd6+viZOcxNwoBTKvz1OErdeXywTw6eG4+iYl0TnjMe+WjBltojuoKIiIiIiHxjUChFVk8az5wwcnYnlZPHbYhQqkEBMzwKhRhUpCriZJc8pIIgModMq+14QdvZ0aSjDtkz5upeRC6yi8Ie64IHPSK9llLVsBuXxTXS7TUBsjQml3ay90iyC0eTOyc6dx+BOi+6B5DfYFuQds7TeYTMkoNMSv5ObI+s9Dl0aie2i2c9Pf1oLMwNJU8wbZGzj60pR011OV5YbB9SlE6pBjjqcUGNeivERBO4iJW7+CE1Y5rMyfNhpCdN0P1srJ4+AaXWIyoPw683RYdwNAl1siTTAd6/+s114reWuEpqevpc3DpLnDETTBMRERERBcKgUIr0zTkweNkGhBy5VuQNd2VkCvj26sr4nioJhpV50cOj5PEqMazI1ntHTg0vjheSuXPETVxsMunA7TQzeslkw6FVpY5cPdnWMZetRo5bkCrA+cWZVoJrbOepjynaYZbjWXmFxmCwCZClLbm0TUeTzHArr2eF85oUlWLYqtUmwOYv4CMDWJHXKBDvh/19dWX1wCpEjm0IV3bRPGcuJSFoO1VibplHaJX+nDmCQ+I9GGZ6o3WPj1HV0AwMuRELx+qhY34TTM8v0dPRS/l3L4hPQJwOAWbzOvxH/XM7YXkl7iq2vb/j5uHWFZUovVv/3Na94pyqPeh+cWaW4Fbb/rlq/1LITE3e/PeIam7Un7MJyyswxXbNc4tLcdea1Vggk1ALyXocBXv/jmDz1hYgbzxuXayHjjHBNBERERFRMFnTps9wzk/WRWPHhnHqVH/953kY14gb6xxxUyZzregb9XgyybJbvh3ZO0cGYzzXexhctiFyMx+vCa1x04Snp51eOmQCZ8fU+EbA89NMmz3aKnMceSWNzi6xgmOCnIY9jbmEouZhWJXpZRPrbB0uHsjHsIVweS/sPF5DzhS2KnEgy3GONvHXJXg7vY4RIa6tnNEs3QE37Wa8XFyiZhyTCaaf3LXJVz6h+SvKUW4CEJBDiJ7eiI3p7jFSXIGfLy9USaZf2+z/cz1lxYZIcCReE+qernDt3RJ0Py2MW9esjgRaYslp7qOJshNvGyFnGHsiNgg1D3dVm95AsZrq8O6+fCy4G0na2pX3bzIeq/6emnFMJphet+wd5hMiorRyTNfroOtjV0e2F8/RVaIcqZYFs2y2sdepsqy3r1PlTkwYPwF//48LRC0REWWy//jv38XxE8eRJf4gS/ytHqIYs6xqZFkVbc96pWKV5d/sKZQSa3hUrbiJ17M02W+QOw6+gYur3RMwS0mHdHlorxKvWV1nhpIZZ5vQvk3cpJe5BSG61k7sqTR5ZHRvAEtkP4/AQNDz0+rxtWhrq2irXYcMZIhjJppFzJqSXw6FS2dyaaedoh1VzvbJ96B6pbjGleb4yYZ3ydd4Q1xXsyjI82t9x3umMEtH7a/U+xil33/7kEEteDs7amWCab2vvT0d1v7dFhCSPsa71tisFBJM76jdhzpzqo1b301/QEgIOovW4ZceQM36OrQ43rYmHN9ahZpl3sGSoPtp9fjgiZWo22/fWbRdBmqetgeEJDMsLhnXHlI78fbTVc7jyDauX4maJyrNMLvkPY6Cv39HsGe/KTLBNBERERFRYOwplIqCUoRW3gcE6gnTg/pKO9Ml0863n7r3xqfwXKgZrx5Yhxf95BOijKZ7GXVT7zAiyni6F48bXW9f7dhW9e6xyJ4/8snUxTzbewPpovvyhAnsKURERNGeQrJ/j2svIblGVeplyapXdeZZP5ln8WBPoRRkF85WuVaC9YTpOX2lnWkh892svA/Z3ZZcmnpEzh34aUg8+00wTZlt3FyUyGFnTDBNRERERNQlDAqlQCdvTse04N2rr7QzkAJ7omXZQ0jmz4lPtE19x9SRd2DLjGLId3Z7w3u+EkxT5goXz8ULz8yCHNRX99ZuJpgmIiIiIuoCBoV8s2aA8jst+NXSV9oZRBjX/GQ1RlVtUI/QsvtUj6j26kTJnalXyrkDW4qfwkfiUTNZB4Tqm2vx8Dm9mshh3Fy8UK2nrl+7XAeEGvf/Ac+7TctPRERERES+MSjkm5W8uQvTrfeIvtLOrvOThJp6qaG5KhCktDVj+5H1WPTpx6aCKMb1w1UgSGlqQd36TXj0pSOmgoiIiIiIgmKiaSIiIiIiGyaaJiKi3oaJpomIiIiIiIiIKG0YFCIiIiIiIiIiykAMChERERERERERZSAGhYiIiIiIfJKpfrzYV8VuZy2qZ7NSl1UxyrZs24qIiMj53eLy9RCpsm2Y6FtErmNQiIiIiIiIiIgoAzEoRERERERERESUgRgUIiIiIiIiIiLKQAwKERERERERERFlIAaFiHpCUQVGVW2IewwrMut9GlxWqfYLlc0zNQSMxiOznsJHxU9hy9ibTV2qrNcoxyM5pqpL0v161FvlLq7Ez6s34K5iU3HV5WLpmnLUVJfjhcWTTV2qrNdYiqXjTFWXpPv1iIiIiChdGBSiXie7RAY+KjDYLPcH2Xn5pmRXh8t7TNGPglLkTMtTxexRY5CtSoScm3D7EF0MF0zFvbrYDUygZ9YdmGpq6OrRwZgKTDHLic3DXdUbVPAm4WNFqsHWMG6YJX8mm9Dyua656sZNwmz9awL5d0/EfF3sBibQs2auuApERERE1FcxKES9TBiDZ4g7mrOn0WFq+oOO2gqcLXvAPFai9ayoTPUcG3bjstxP3IC2H9jdr65Pl7R+gvfbdLG+4RDe1EXq10wwpuk0mk1NQsVzMMEUE2lpbDAlvwowXMWE9uKzk7rmqjt5FHubdLFx6zHs0EUiIiIiIlcMClEvU4CBo8RTPwsKOQU9x3p8vUoGlSpwsbbe1BFwBi/uexbTdz2LRac+NnXUv5lgzJnTOK8rEttViV8veyDyqNmqoybH10fr5OO1zSn+XI0bg+Hy2W87esR5bHxiHUqXrcOjm4+YOiLqeZ3m2SpZy/al2L87TVno1MtERERR1veCeFbfE1aN/Nv2HWJntpOc66NLDApR71I0Rw0ba9+3Uy/3R5lwjv3SSEwww9R6zLi5eCySHybXVJLV8+f4H4P9DIXyVfeerg/5ul4HhVLvYdQfjMD18jISERERUZ+WNW36DNeAUlBjx4Zx6lR/78UQxjWrViPnbBXOVu1EdlEpcu68D4Nl7w+h42wdWn9biXaP+wSZMye0EGhdXYGv5TYF8zDsJyVif/MvbLH/Rbf9C8IYfM9DKq9MJJ+MPNY7r+PrPW7XvGvtlLKLKjDszkJkm33U0KVttWit3enZyyW18xPrVtnWJST2KxP7qbI5t1H2OhcFpQitvA/ZB/U1SA/xPpQ534eOg2+g9a0atOdXYNSy/Oi5u4i7Pl5kcuplhWbB5uwbaF5V46OXUbB26s/JbNt70iT226v3S9Ren+698Sk8FwK2H3kWD58zlVLOaJWr51DrGb1s6O2b8eqBdXixVeb1WY4HPYIz9Q3rseiUc38ncYyR87G2YArC5jXqm3fhNw3vic+K/Th6HUYuwRbbtgk112L6p1ZPJaud0Xbfe+MP8NNQSLwrmjzu45++h0Nm2c38FeUon2kW0IItT2/Exm4apiRz9JTeLX7Knq7AB/IY4+bhrp+VYEKe+Rw01eHdVypxOPb448KYUvIQbpmZp3vNSGLburdexwe7EnwXpLSfaMsaW1sSEu1cJtppluLJ/EJlmJB0O4to5wpnO1v2v4E/1tageY68Znmqx9Hbu8zKFFnvcd36dXje/hrjctVnpf6ksw+S3t76LMi8PkuwyOOyNG7dhEc3J+rDJI5RPBsP3zMeKk4mNO7fh9ra3UCJ/Th6HYrvxAu2bRPa/weUvmT1VLLaGW33/BULUDJzOKxsa/K4L7+0G/39Xw/Ud3Ta/s+qU6f9f7oq9m2j5eh2us5a1s/2umjZbKOexcOsnzhhPP7+H78vdyYiogz2H//973Hs+AlkZQFZ8o8qyGf5JP4ydeohd7A/q/XWdqpK/q3K7CkURMFcDBolbrAxBteUiRv8ZdFAi5Q9qhDDVlbimgJTESNb3dg0okPcYKukyivLnEER+VpxN+oVCK1cjWH2gJAkjpWzbDVCJS6pPrvUThms2SD2sQeEpDwMXliG0KpSz0THKZ1fwRjx+n7uMATHcKt6tB+QQ0Dyke1xnVXg6Cf3iXbW4WK6AkIyyFQV/z5kT7tPXcths2QQR5+7F/v1ScQ9ObV4P/3kEwraTvk5U58T+3siXsPar6jrKWWPXtJZYMYNGa2etdF4ZMpy1MxYji1jnfUTh4qntk+xzQrUBKYDNTWTnUGecKgYz80ox0/lcVz4CgglMvRmvCyO+5wtICTJ49b0oqTVuvdMIy6cNEmcnylzBmFkMSYglFtcgR8+sxoL7IEdKa8QhctX44eL3T8vKe8nh2n5CggJyfIMWUO+9n+YPCA0rhQ/rI5v5/CZ92HBMxWYo5JM1+FYwICQdKqxRT3n5dt7guVi6c+WYO0zS2J6iOVijPzxaDqhA3ddogM1a5c7gzz5M2eh/JmlKLH/GNr4Cgglcv1kPCaOW24LCEnyuGuZtJqIiIiox7GnUBCOHhxNaK/+FVr31OsbddUrRgZBRNm1d4rp4YI30PzOGBV06RDbXXxrp7lBD2NwEdBu7/ljO57aVrymDgqEkV1yP0IL5bqm+F4fgdsp1lWJdVavoDqrbYLY7xqxX47Yr736AVyMmz0rwPlFmOP67Qljzq9j20o0u+XYSbY+ZdZ1EUQbL/422nNG9agSx1IBmITtN6/h+tlIwpyP+3W3C9pOq/eV/qxcjLxH4nNWdL/Zz+VzlqqRS/DR5CnOnjU5d2DLjGJxJMGt3tELJ97UseWoKQgl7Clk9VASB8D2I/+Ah8/p7abm3IyyKSW4TQV/YnoKOdyMl4vFdm27ULovcQ+faE8hsyhfVxzzReuY4hrI4JQU12PKTg4f+9ksFIob8eS9ProijFvXrEah+LmteWsMSpcXomV/FbbV7sR5FXwIY0oxcNjeg6e4Aj8X20lq25fEtmopjNzF96P0bv17KdLzyBJ0vwjT06dJtPWJmtRz+Zjjt2xdmSSHkNWjSBDHeveVmkgvKRnUWiheQwWKgrbDUnwnapaPd/asEe/7C8/M0kETt3pHL5x44cVLsfbu4Qk/M9FeaC2oW/8unt9l3oVxk7H4Z99Tn7nEvdMm47FqsV3TPjz+RLIePrE9msTrimNutI4proEMTklxPaaIrhLde8eN6c1jY982Wo5up+usZf1sr4uWzTbqWTzMevYUIiIiiT2FepFIDw55Uy2T/lqBFqlhp7gJf0Mvu04bbpIMY7a4yc4XN98r0SyDPJGb7PqYgIm4wRc345IMBqht1ZIkjltbieZtssdMHgYVOv8fa9B2Di6TAYU6XBQ3/xflMDF7AEDs97XZLzvP7f/ppnp+NrLXkHz2m4B5z4dq2Fh2nltXIXPdZFAkTUmZ9XURZEBnlXMoVcce8T5U1+mFRO0359jRlHpURb+fTbjSqJe9dLmdZ/eq4GGU+NzI/cpWqs9ElwJC0rlD2C6fh46M9pIZKofKHMZ22cUjrl604JJX1MSnnDvwUxMQkkEfKyAkHWr9GA/vW49XzQxmadd2GE/uWhcJCEmHzm3Ck6Y7i7PHVIyTu/F8JGlw4LCDDyZxs/i5Xbg8H8fXr8RrMlgTCQbUOwNCMmBiAjty6JTaVi1J9Ti/udIkc87DhDn23xNB97PpYnLn3Hz9e7GlMfHvhSkrTEBofxV+/UQ0ICSd31WJ19bXQfXx6WqS6V3HxG9bYfQI9VlXrpe9aE6gbr8ox9UDjY0X9HJQ4+aixASEZNDHCghJ9SePiM/cJmzRubjTr+kE1i3bGAkISfW73sE6ea6Cs8cUEREREXU3BoUC0MN/mtD6W4/eIA3JgwIYlYeOah2oSSS7pETd4MveLl69Qzrq9qrjxQZHgrVzHgZNk89yaNkGjKpyecgcPWpbFymen0O+3td/AuYGXJFTtLsE36zr1v6Ojx5HfhSUIkdeFxlgS9LDJ2H7zTl2NKVwXZSwmap/b+K8Pl1qZz061PW8D8PK5rkMy6tPfGzfzuG4DMAMycUkXYF7Q1OAtvN4Vw4tG3IjFubo+qliG+lkm3vvH99McAnNOz16AXWXZrx6eJPrNPnWMLpewQq0iN8ZLesr8HaiXEBC7uISFTCRvW28cumc/3CvCpoMz49+kILu52CSOwdLMm2msk825GtcKW6RQRPZC+gl7+PIdnQ9yfQFfK7iYMMxVldg/i3jxbFbsEcOLcsbj1vH6fpw/nXquamxS2GoSHAJ++u6LUeVuxZseeUd12nyrWF0RERERNSzGBRKWdjk2EmeE8aVFRRIEOSxswI7l+tSDyIEaqeZGSuwFM/PbrDKc5O8J0yUFcSYjcH2+8eCUgxbKK6bHLaWYhu8ZBfO1ueVIJ+Pn548+hzrcDnldvmbxr6r7WyvEu/bwSZkTytDSAUFKzGsZJ56zfQ5g2OX5PMULBgpn03eoEvn8GabvNkNYYLJ7zNpqOzecxjvdrGjkBVc6nKPo/7KmkUrQbDGzpq96/iHqf1eCrqf3ZRb9O+JYDOHmR5RSfIO5c6Zra/Hvt2evYD89jhK7jxOq5jneBQVy2eTN+jMBexo/FIUhuP662U9MDZftuoE9nRxeJUVXOpyjyMiIiIi6vMYFEqZuTk/qIcuuUowDMoKfPgL8vgM7ER6n9g3CtZOa8iZHKp2tizxwy1PT2rnZxcsiNW+Tw68yMNA3WyhG5JLC8mDc6YnT8L2m3NMEthx5XMa+663sx7tVRU4u3olLm6rE+00icVVcMhjOE8AzmTTeqp3FbC5dF60wKq/GQtkTKjtPI6KJ+o+VqDFX7AmjBFqxJtOSu0pbrr2oPvZ+XwNLz6HniUPXvnsceSTM9m0nupdBWw+bxFnatVPRpHqvdSCU+KJiIiIiCgdGBRKlbk5T5QTZvA9enhV/A18F3sZuQrjmjvlDZ1sk+0GpkvtlMGFIAGArpyfjyCWm0YdYIm0t+h+lQS7Y9vrqb1Ol/npyeOvt48bv/mEkvPZhoZ6tMt8VTIAuLoK7WdlcOghzxn1UnWo+VMV/AkPHQmMnIrbRFkNEWv9BO+3ifrcmzA1ZyTUqJlL55IkdfZPHa+rbMPe+ocuBlpchXHrPfr3Umo9aZLtZ3r6+Jk5zE3CgFMq/PU48qv+wxMq+JOfPwIonggVopNDxE4exd4mUT9rEsLjRkAeUvYgSuWKJqKO11W2YW9E/YVO/OwuwarUqdfSLxh9XZle2rCtJyIiMt8Yka+GyLL829Rptu8Si7WByxcZg0IpsnrSeOaEkbM7qZw8bkOEUg0KmOFR4hZhUJGqiJNd8pAKgsgcMq224wVtZ0eTjjpkz5irexG5yC4Ke6wLHvSI9FpKVcNuXBbXSLfXBMjSmFzayd4jyS4cTe6c6Nx9BOq86B5AfoNtQdo5T+cRMksOMin5O7E9srqo9Zye3XzoSNyrhnZZQ8TM0DIZeElXkmnBCkIhNBX3qpoYObq3kj+5mGhyHnU7OfvYmnLUVJfHTE2eTqkGOOpxQQ13KsRENdwpXu7ih/TsVU1v4MNIT5qg+9lYPX0CSq1HVB6Gm2FbTuFoEupkSab9vn8nL4hWCaNHYL4a2mUNETNDy2TgJV1JpgUrCIWZEzFf1cQYp3sr+XMdxpicR0RERETU9zAolCJ9cw4MXrYBIUeuFXnDXRmZAr69ujK+p0qCYWVe9PAoebxKDCuy9d6RU8OL44Vk7hxxOxGbTDpwO82MXjLZcGhVqSNXT7Z1zGWrkeMWpApwfnGmleAa23nqY4p2mOV4Vl6hMRhsAmRpSy5t09Gkp+IZvKzCeU2KSjFs1WoTYPMX8JEBrMhrFIj3w/6+urJ6YBUixzaEK7tonjOXkhC0nSoxt8wjtEp/zhzBIfEeDDO90dInmmx6gcwb1BYdIvZms+wDIurNbGHvN6tIQteYHkgyj9Fzs5bgXltQR04Pv2VGieqtlNjHeFdFTUJ4cModjtdAzmjcO1J1t0mr+SV6Onop/+4FWNodN98BZvM6/Ef9e2nC8krcVWz7/I6bh1tXVKL0bv17qe4V51TtQfeLM7MEt9r2z1X7l4p3NxH/PaKaG/XP0YTlFZhiu+a5xaW4a81qLFAzdyXvceT//Ysmmy6SeYNsQ8R2/PGE+Ps6FN0il1qw90O/71ICpgeSzGNUvuZOzLe1S04P/8Iz31O9lRI7gj1qxrDhWPSzuY7XwLhczC/uriAmEREREaVT1rTpM+L7D3XB2LFhnDrVHb00eoMwrhE31jnipkXmWtE36vFkkmW3fDuyd44Mxniu9zC4bEPkZj5eE1rjpglPTzu9dMgEzo6p8Y2A56eZNnu0VeY48koanV1iBccEOQ17GnMJRc3DsCrTyybW2TpcPJCPYQvh8l7YebyGnClsVeJAluMcbeKvS/B2eh0jQlxbOaNZugJu9974FJ5TgR+huRbTP/1Yl3PuwJYZxeITIcnp3N1n77KbOrYcNQUh1Desx6JTHkEkx+vGaDuM7Zem4LaQnrLec4ayRK/haOtoPDJrOR4c4v16fto8f0U5yk0AQgYE5PThaZ8tqrgCP19eqJJMv7bZ/8/tlBUbIsGReE2oe7oCH7i0Neh+Whi3rlkdCbTEktPcRxNlJ942Qs4w9kRsEGoe7qo2vYFiNdXh3X35WHA3krQ1tffPse3+P6D0pSO6PG4uXnhmlp4tDHI6d/fZu+zCi5di7d3D0bh1Ex7d7BFEcrxujKYTqDszHoUzk3zmEr2Go625WLpmCRbleb+erzYT9ZDEw8fi19nrouXOSA99XWct62dVJx7qj7WsynpZrZMP8WfihAn4+3/8vtyZiIgy2A///e9x/PhxZMk/WVkQf8n/dNnU6Yfc2pRV0eXZbCOxp1BKrOFRteImXs/SZL9B7jj4Bi6udk/ALCUd0uWhvUq8ZnWdGUpmnG1C+zZxk17mFoToWjuxp9LkkdH/t9wS2c8jMBD0/LR6fC3a2iraatchAxnimIlmEbOm5JdD4dKZXNppp2hHlbN98j2oXimucaU5frLhXfI13hDX1SwK8vxa3/GeKczSUfsr9T5G6fffPmRQC97OjlqZYFrva29Ph7V/GgNCku4RpG1vNgEhyRpaJtl6EHVZ63tYdKAWrzbbB0k1Y3tDLUr3bUKVnynizWtsb3NuW992GK8e2ZE0eJWqHbX7UGfeysat73bL9OFBZ9E6/NIDqFlfhxbHx7IJx7dWoWaZd7Ak6H5aPT54YiXq9tt3Fm2XgZqn7QEhyQyLS8a1h9ROvP10lfM4so3rV6LmiUozzC55j6NU3j/dI0ir+6MJCEnW0DIpnUmmT+7Go0//AVv226eCb0Hd1j/g8SfewWY/U8Sb16gT7bJrbDqBLev3Jg1eEREREdHVx55CqSgoRWjlfUCgnjA9qK+0M10y7XyJiIio2+heO+7c1tnromXT40eWVMFa1s+qTjzUH2tZlfWyWicf4g97ChERkcSeQr1AduFslWslWE+YntNX2pkWMt/NyvuQ3W3JpYmIiIiIiIj6JwaFUqCTN6djWvDu1VfaGUhBNJuLTJ4cWinz58Qn2iYiIiIiIiKixBgU8s2aAcrvtOBXS19pZxBhXPOT1RhVtUE9QsvuUz2i2qsTJXcmIiIi6llqCJidtRxbbxdZJweNGaKQaBciIsow5kvB8d0Qu2BbdqyysX9PMSjkm5W8uQvTrfeIvtLOrvOThJqIiIiIiIiI3DHRNBERERGRoZM+u3NbZ6+zynF14qFqzHO0TvxRRfuyrlPL4jFh4gS8xkTTREQZTyWaPnZcJZDWyaJ1wmiVPtpjWXJLOK2f9DN7ChERERERERERZSAGhYiIiIiIiIiIMhCDQkREREREREREGYhBISIiIiIiIiKiDMSgEBERERERERFRBmJQiIiIiIiIiIgoAzEoRERERESUlJwn3klNJW+xly0xdXrJ9nf0r2hRL1pPREREDpFvjbjvHVlnrZfiS9GaKAaFiIiIiIiIiIgyEINCRD2hqAKjqjbEPYYVmfU+DS6rVPuFyuaZmr5qNB6Z9RQ+Ki7HIzmmqsdZbXgKW8bebOrSpTecH/VmuYsr8fPqDbir2FQEkoula8pRU70US8eZqh5ntaEcLyyebOrSpTecHxEREVH/xqAQ9TrZJTLwUYHBZrk/yM7LNyW7OlzeY4p+FJQiZ1qeKmaPGoNsVaLAcm7C7UN0MVwwFffqYi9iAkuz7sBUU0Ndp4MxFZhilhObh7uqN6jgTcLHilSDtGHcMEv+LDeh5XNd02eNm4TZ+tcS8u+eiPm62IuYwNKaueKqExEREVEsBoWolwlj8Axxh3H2NDpMTX/QUVuBs2UPmMdKtJ4VlameY8NuXJb7iRvJ9gO7+9X1uSpaP8H7bbpY33AIb+oi9WsmGNN0Gs2mJqHiOZhgiom0NDaYkl8FGK5iQnvx2Uld02edPIq9TbrYuPUYdugiEREREfURDApRL1OAgaPEUz8LCjkFPcd6fL1KBpUqcLG23tRRcGfw4r5nMX3Xs1h06mNTR/2bCcacOY3zuiKxXZX49bIHIo+arTr6cXx9tE4+Xtuc4s/juDEYLp/9tqNXO4+NT6xD6bJ1eHTzEVNHRERERH0Fg0LUuxTNUcPG2vft1Mv9USacI6XBSEwww9tSNm4uHovkeck1lWT1/Dn+x2A/e6F81b2n60O+rtdBodR7GFHqRuB6+bYRERERkausadNnuM1KFtjYsWGcOtXfezGEcc2q1cg5W4WzVTuRXVSKnDvvw2DZ+0PoOFuH1t9Wot3j3/syZ05oIdC6ugJfy20K5mHYT0rE/uZfrmL/i277F4Qx+J6HVF6ZSD4Zeax3XsfXe9yuedfaKWUXVWDYnYXINvuooUvbatFau9Ozl0tq5yfWrbKtS0jsVyb2U2VzbqPsdS4KShFaeR+yD+prkB7ifShzvg8dB99A61s1aM+vwKhl+dFzdxF3fbzI5NTLCs2Czdk30Lyqxkcvo2Dt1J+T2bb3pEnst1fvl6i9KZH5cpbjwSHNePXAOrzYOhr33vgD/DQUEq3W6pt34fFP38Mhsxwn52Y8Ij5bt9v3aTuM3xzehDdbTUWEdTyzGKO+YT0WnTpjltxNHbkEawumIJwgUBN9nYDnJ46xJckxIpprMf1T9x5O81eUo3ymWUALtjy9ERu7aZiSzNFTerf46Xy6Ah/IY4ybh7t+VoIJeebz01SHd1+pxOHY448LY0rJQ7hlZp7uNSOJbeveeh0f7ErwHZLSfqIta2xtSUi0c5lop1mKJ/MLlWFC0u0sop0rnO1s2f8G/lhbg+Y58prlqR5Hb+8yKwOR+XKWYFGe9R7nivd+AUpmDoeVxaxx/z68/NJueF7RcZOxtKQQs+37NJ1A7SvvYEfcZ8Y6nlmM0bh1Ex7dnLjvU7j4Tjx8z3io+JqH6OsEPD9xjBeSHCNi/x9Q+hJ7OJGTY5p5h8642X9jp6S3liL1Vp151vX6dVRZ1ccsq7ro8oSJE/DaP35fvgoREWWwH/773+P4seNAVpb8D+JvZA1QfzvqdFkvqxpd8HxmT6EgCuZi0Chxg40xuKZM3OAviwZapOxRhRi2shLXFJiKGNnqBqURHeIGWyVVXlnmDIrI14q7Ua9AaOVqDLMHhCRxrJxlqxEqcUmh2aV2ymDNBrGPPSAk5WHwwjKEVpV6JjpO6fwKxojX9/Mvd8Ex3Koe7QfkUI58ZHtcZxU4+sl9op11uJiugJAMMlXFvw/Z0+5T13LYLBnE0efuxX59EnFPTi3eTz/5hIK2U37O1OfE/p6I17D2K+qGVK1Db8bLs5bjOVvARAqHilHjkWR56thyfDSjBA/G7jNkCp6bIWcTG21q0uPeG8tRM9lnsCZWiucX6BhXke4904gLJ3WA6OfPlDmDMLIYE1zILa7AD59ZjQX2wI6UV4jC5avxw8Xun7OU95PDtHwFhIRkeYasIV/7P0weEBpXih9Wx7dz+Mz7sOCZCsxRSabrcKxLAaEY10/GY2uWoNwWMJHyZ87CWo8ky+HFS1HzzPewKHafvPEofyb9vczmr1iKtct9BmtipXh+gY5BJOigTTCJ9nSsi93QthwtypIODhEREVnivhdEhed3RWRF4m8T9hQKwtGDownt1b9C6556faOuesXIIIgou/ZOMT1c8Aaa3xmjgi4dYruLb+00N+hhDC4C2u09f2zHU9uK19RBgTCyS+5HaKFc1xTf6yNwO8W6KrHO6hVUZ7VNEPtdI/bLEfu1Vz+Ai3GzZwU4vwhzXL89Ycz5dWxbiWa3HDvJ1qfMui6CaOPF30Z7zqgeVeJYKgCTsP3mNVw/G0mY83G/7nZB22n1vtKflYuR90h8zoruN/u5fM4Cie2504xXj/wDXjyne+vIXjkyCCNtP/IsHj6nippY95Fa14ztDTtRderjSG8b1ZtHBm/k66keOmaFBxlcqikIJe4pZDues413iGMVi2MdxpO7NsUkqu7C+UXcjJeLS3Bb2y6U7kvQY8qNHD72s1koFDfGfnpvBBfGrWtWo1D8vNe8NQalywvRsr8K22p34rwKBIUxpRg4bO/BU1yBn4vtJLXtS2JbtRRG7uL7UXq3/n0W6XlkCbpfhOnp0yTa+kRN6rl8zPFbtq5MkkPI6lEkiGO9+0pNpJeUDGotFK+hAkVB2+EQ23OnBVvWv4uNu8yVKb5TBWGkuvXr8Lw9CCXW1ah1LajbWofNm49Eetuo3jwyeOOzl5kMLq29e3jiz5rteM42zhXHmiWOdQLrlr0Tk6i6C+cXMRmPVX8PhU378PgTCXpMERmJg0K6R4+dfXvXsniWJWtZPdvrZNm2HF1v6sXiRPYUIiIiQfYUOnbsuOrhIzv5yF5BqrePWo7WRZblTqZerdGFuGf2FAog0oND3lTLpL9WoEUSN6kXf/uGXnadNtwkGcZscZOdL26+V6JZBnkiN9n1MQETcYMvbsYlGQxQ26olSRy3thLN22SPmTwMKnT+v9Kg7RxcJgMKdbgobv4vymFi9gCA2O9rs192ntv/e071/GxkryH57DcB854P1bCx7Dy3rkLmusmgSJqSMuvrIsiAzirnUKqOPeJ9qK7TC4nab86xoyn1qIp+P5twpVEve+lyO8/uVcHDKPG5kfuVrVSfia4HhGK0yaDKukjARDp0bhOeNN02xg2x9/oZjUcKrGDKOjxsCwhJcr9FR2Q/jhBuD6Wnt9DUIbq3hDyes43vmWNNwYKRus5VSueXJid34/lI8t+uhR0SM4mbxc/7wuX5OL5+JV6TwZpIEKHeGRCSARMT2JFDp9S2akmqx/nNlSaZcx4mzLH/fgm6n00Xkzvn5uvfpy2NiX+fTFlhAkL7q/DrJ6IBIen8rkq8tr4OLXIh3Ummm2RQZWMkYCLV73oH6/brcl6+vddPLpbeYwVTNuJ5W0BIkvs9uv6EKA3H7Dnp6S0Uzr9OPcvjOdu42xxrPIqKdZ2rlM6PiIiIiPxiUCgAPfynCa2/9egN0pA8KIBReeio1oGaRLJLStQNvuzt4tU7pKNurzpebHAkWDvnYdA0+SyHlm3AqCqXh8zRo7Z1keL5OeTrff0nYG7AFTlFu0vwzbpu7e/46HHkR0EpcuR1kQG2JD18ErbfnGNHUwrXRQmbqfr3Js7r06V21qNDXc/7MKxsnsuwvPrExw6kGa/KHEBmye7oJZfBPDk34XbZ+6ZtF6pce9cI5w5hu3gK597kOvSsO3gHdlI8v77GCrSI3zUt6yvwdqJcQELu4hIVMJG9bbxy6Zz/cK8KmgzPj34Ag+7nYJI7B0sybaayTzbka1wpbpG5nGQvoJe8jyPbkd4k0y3YInMAmSW7U40qBOU0bhJmq6+HfdjsdT67jomzFb+yZk0SZ98zvAM7KZ4fEREREfnGoFDKwibHTvKcMK6soECCII+dFdi5XJd6ECFQO83MWIGleH52g1Wem+Q9YaKsIMZsDLbfBxaUYthCcd3ksLUU2+Alu3C2Pq8E+Xz89OTR51iHyym3y9809l1tZ3uVeN8ONiF7WhlCKihYiWEl89Rr9gpDc/UN6pBi1BQ/hY9cHyW4TW2cHofadM+E2yYvwb05qqjl3IyXzRCwk23RXkAZxZpFK0Gwxs6avev4h6n9Pgu6n92UW/Tvl2Azh5keUUnyDuXOma2vx77dnr2A/PY46lbXm7w8ebOwtlrPUhf/+B5036z0qG/8Uj0XLr8T88epojZuMh4zQ8CaGr2uGhERERF1FwaFUmZuzg/qoUuuEgyDsgIf/oI8PgM7kd4n9o2CtdMaciaHqp0tS/xwy9OT2vnZBQtite+T/y87DwN1s4VuSC4tJA/OmZ48CdtvzjFJYMeVz2nsu97OerRXVeDs6pW4uK1OtNMkFlfBoZ7qL9DLRIZ66STWkeDTDBN8aq717rXUz1mBFn/BmjBGqA5VOim1p7jp2oPuZ+fzNbz4HHqWPHjls8dRfxQZ6qWTWEeCT8+Y4NP+P3j3WiIiIiKibsOgUKrMzXminDCD79HDq+Jv4LvYy8hVGNfcqf9/rmNIUpfaKYMLQQIAXTk/H0EsN406wBJpb9H9Kgl2x7bXU3udLvPTk8dfbx83fvMJJeezDQ31aJf5qmQAcHUV2s/K4NBDnjPq9ZhL53XuEzkd+65nEz9STc6ckO4f4rzVl4mua1H6qTOvUdoNycUkU+xduhhocRXGrffo32ep9aRJtp/p6eNn5jA3CQNOqfDX46jbfd4i3jVBTse+TOee8nykNTmzHurl/DUmE13/AY+/5MxrlHZ5wzHWFImIiIgoikGhFFk9aTxzwsjZnVROHrchQqkGBczwKBRiUJGqiJNd8pAKgsgcMq224wVtZ0eT/ud69oy5uheRi+yisMe64EGPSK+lVDXsxmVxjXR7TYAsjcmlnew9kuzC0eTOic7dR6DOi+4B5DfYFqSd83QeIbPkIJOSvxPbI+sqaf0E77eJ59A8PGIfytWdRi7BcyHg1QPPYpEj8BSf6Lp75GJiqucqZx9bo3tipHta8ahUAxz1uKBG2RViokdC4dzFD6kZ02ROng8jvUaC7mdj9fQJKLUeUXkYfr0pOoSjSaiTJZnu7vfv5FHslXm5ZxZiqX0oV3cqvhPlM4EtT6/Do47AU3yi6+5xHcb01LkSERER9SEMCqVI35wDg5dtQMiRa0XecFdGpoBvr66M76mSYFiZFz08Sh6vEsOKbL135NTw4nghmTtH3KzEJpMO3E4zo5dMNhxaVerI1ZNtHXPZauS4BakCnF+caSW4xnae+piiHWY5npVXaAwGmwBZ2pJL23Q0yTsoeT0rnNekqBTDVq02ATZ/AR8ZwIq8RoF4P+zvqyurB1YhcmxDuLKL5jlzKQlB26kSc8s8Qqv058wRHBLvwTDTG+3qO4MXG/TsYg/OKMfLY2/GVEfAZDTuHbsEW4qX4F5T01V69rEQJqRpNjP/Psa7KtoiznXKHTH5jMR5jvRuz/wSPR29lH/3gu658Q8wm9fhP+rfZxOWV+KuYtvnftw83LqiEqV3699nda84p2oPul+cmSW41bZ/rtq/FDozlBf/PaKaG/XP34TlFZhiu+a5xaW4a81qLJBJqIVkPY66//07j41v6dnFFj2zFI8tnoyw4xi5mL/4TrxQfSfmm5qu0rOPDcf1aZrNzL8j2KOGrYlz/dncmHxG4jyLe7o9RERERL1L1rTpMzpNOS3Gjg3j1Knu/39+V0cY14gb6xxx8yFzregb9XgyybJbvh3ZO0cGYzzXexhctiFyMx+vCa1x04Snp51eOmQCZ8fU+EbA89NMmz3aKnMceSWNzi6xgmOCnIY9jbmEouZhWJXpZRPrbB0uHsjHsIVweS/sPF5DzhS2KnEgy3GONvHXJXg7vY4RIa6tnNEsPQG30Xhk1nI8OKQZrx5YhxdbTbXN1LHlqCkIob5hPRadciZyttZ5ajusZv1ye127RMeIyLkDW2YUi0+ot3pxvPcbdtimne/a+UUkPLac6t59ZrP5K8pVrwytBVue3oiNaRviZRRX4OfLC1WS6dc2+/95n7JiQyQ4Eq8JdU9X4AOXtgbdTwvj1jWrI4GWWHKa+2ii7MTbRsgZxp6IDULNw13VpjdQrKY6vLsvHwvuRpK2pvL+5WLpmiVYlOe9TXjxUqy9ezgat27Co5udrbXWeWo6oWb9SvbZSXSMiHFz8cIzs3SCaw+N4nh739prm3a+a+cXkfDYcqp795nNKDN1dib6Z3GnWG+KQuy20eXodrrOWtbP9jpZji6b7eRzZLkTEydMxGu135cvQEREGeyH//73OHbsGLKysvRD/BEF+V9kWT7rOrkkqLIq2J5VIfLMnkIpsYZH1YqbeD1Lk/0GuePgG7i42j0Bs5R0SJeH9irxmtV1ZiiZcbYJ7dvETXqZWxCia+3EnkqTR0b/X29LZD+PwEDQ89Pq8bVoa6toq12HDGSIYyaaRcyakl8OhUtncmmnnaIdVc72yfegeqW4xpXm+MmGd8nXeENcV7MoyPNrfcd7pjBLR+2v1PsYpd9/+5BBLXg7O2plgmm9r709Hdb+aQsIdd2hU+sw/UAtXm1udg47aTN5fvYlDwj51voJfiOOk0h4yBQ8OHk5Xh5pKtKl9T0sEue5XZyXnQxCvXpkh2tASNpRuw915iPQuPXd9AeEhKCzaB1+6QHUrK9Di+Pj3ITjW6tQs8w7WBJ0P60eHzyxEnX77TuLtstAzdP2gJBkhsUl49pDaifefrrKeRzZxvUrUfNEpRlml7zHUU+8f1L95o0offoP2LLf5BiyNJk8P08kDwj5dvIoasVxEsnPG49Fy5fgMY9hgoGd3I1HxXnWifOyk0GoLev3MiBEREREGY09hVJRUIrQyvuAQD1helBfaWe6ZNr5Ug8yPX6wC6WeiatH494bl6u8Qwl7/RBlLNPjB/vwuGfi6lzMX7FE9ZBK2OuHqJvpXjteTE8eI3bb6HJ0O11nLetne50sR5fNdvI5ssyeQkREpLGnUC+QXThb5VoJ1hOm5/SVdqaFzHez8j5kd1tyacpoOTfh9iFA/flPEiSUPoOjl/ylWibKSOMmYXYe0LjvqEdASDqPU42JexIRERERUfoxKJQCnbw5HdOCd6++0s5ACqLZVWTy5NBKmT8nPtE2UTqFC36Al0eOxlSzbJmaczMeudHKb3QYv2EvISJPMmn2Y8W5cTmywuMmY+kKK7/RCdSylxARERFRj+HwMd+sRMh1uFjmMrNYr9FX2hmEezLqREmoibrq3hufUkPDEvKZ2JooUzmTZ3vwmdiaqDvpoVxezPAuI3bb6HJ0O11nLetne50sR5fNdvI5sszhY0REpHH42FVnJW/uwnTrPaKvtLPr/CShJuqqNz99FqVHdqlkz7Hhbp3weX16E1sT9UM7XlqHx9fLBNoxSa0FnfB5U3oTWxMRERGRL+wpREREREQk6F47XkxPHiN22+hydDtdZy3rZ3udLEeXzXbyObLMnkJERKSxpxAREREREREREaUNg0JERERElPF0jx0vidY5xb2MtWyvl2X7hrFF+7ZERESS9d0gn8XD8VVhlnWdLkXWW4VIhUVXpD0oxKFjRERERERERES9H3sKERERERERERFlIAaFiIiIiIiIiIgyEINCREREREREREQZiEEhIiIiIiIiIqIMxKAQEREREREREVEG6pag0PwV5aipth5L8cKaOzF/nFlJRERERERERERXXQ/0FBqO/LzxKH/mTsw3NUREREREmaQz7u8YtkpVlH+5bkhERBnLfC8k/HpwfH90xm/b6azplqDQjpfWoXSZeTz9B2xpkrXXYQx7CxERERERERER9Qrd31Po5BF8sK/FLBARERERERERUW/QI4mm6xu/NCUiIiIiIiIiIuoNeiQoFM6/zpSIiIiIiIiIiKg36JGgkPYlTp80RSIiIiIiIiIiuqp6MChERERERERERES9RQ8GhcajfM1czOcMZEREREREREREV13PJJre/C7W7W9BY94slD9TjprqcrywONesJSIiIiIiIiKintajw8fyzTMRERERUW/R2dlpSt4SbuK20tQ51ni8RrRallz2IyIiMpzfD2JJ/+eQyndIzwSFimejfOZwoOkE1j29CaXL1uHRzefNSiIiIiIiIiIi6mk9EhTSU9K3YMsr72DHSQaDiIiIiIiIiIiuth4cPsYp6YmIiIiIiIiIeoseDApdhzGceYyIiIiIiIiIqFfo0UTTRERERERERETUO/RIUKi+8UtTIiIiIiIiIiKi3qAHE00TEREREREREVFv0f1BoXGTsfju4WaBiIiIiCjTdJrnWNF6VYosem1PRESZy/7dIMviEfd1EVMRtz5a1WkK3RIUmr+iHDXV5vHM91AoK5tO4APOPkZERERERERE1Cv0wPCxFjTu34d1r+xGvakhIiIiIiIiIqKrK2va9BkuHYqIiIiIiDJDp9WH3lNnpJu9xbGPKFtLkXpTp5fN/vY6Vdb1ctlZp+vlXxMnTsRrtd8XC0RElMl+WLINx44dB7Ky5H/iIZ7lH72gl2VR/Iksyx1jyvop+twjiaaJiIiIiIiIiKh3YVCIiIiIiIiIiCgDMShERERERERERJSBGBQiIiIiIiIiIspADAoREREREREREWUgBoWIiIiIiBJQM4ElEF3tVoql16i/vTey8bURERFlDOf3gmMpwVeG1yoGhYiIiIiIiIiIMhCDQkREREREREREGYhBISIiIiIiIiKiDMSgEBERERERERFRBmJQiIiIiIiIiIgoAzEoRERERERERESUgRgUIiIiIiIiIiLKQAwKERERERERERFlIAaFiIiIiIi6Rafbk6BL0b9ty5HFzmiRiIgynv5OsH0riGJ0Sa91si/HrrN0MihERERERERERJSJGBQiIiIiIiIiIspADAoREREREREREWUgBoWIiIiIiIiIiDIQg0JERERERERERBmIQSEiIiIiIiIiogzEoBARERERERERUQZiUIiIiIiIKAWdnZ2m5CFmvWMpdteY5QR7EhER6a8G8Yj7hjB1ul4v6LJdfA2DQkREREREREREGYhBISIiIiIiIiKiDMSgEBERERERERFRBmJQiIiIiIiIiIgoAzEoRERERERERESUgRgUIiIiIiIiIiLKQAwKERERERERERFlIAaFiIiIiIiIiIgyEINCRERERJSxOjs7TSkg2/5xL+VY1gvJjpZlnvWGkSUiIiItwVeD56q47yfznSSeGBQiIiIiIiIiIspADAoREREREREREWUgBoWIiIiIiIiIiDIQg0JERERERERERBmIQSEiIiIiIiIiogzEoBARERERERERUQZiUIiIiIiIiIiIKAMxKERERERElEad5tk3tYPey7lvyq9EREQZzP6t4Vp2+VphUCgtslDw42zM/UU2ps/LMnX9SS7mL74TL6wpR0219bgT881aIiIiIiIiIup7ujUoNPSmAZj844EqWGI9povl3O+aDdLOBGd+PABDTY0/QfczvpuFESN0cUjRAOTqYr8xf8USlN89Hvl5poKIiIiIiIiI+rxuCwoNnTcQ0+4agBEjnD1nhojlST/KxvSSrGABmN7oi05cuKCLbXu+wXld7CdyMWa0LtWt34TSZevM4x3s0NVERERERERE1Ad1T1DopoGYViSDQZ248PYV7P5lR+Rx8O1vVABlyKQBCHVbj6Ge1omGv9Pn99HOfjr2u2kfNu/qX+EuIiIiIiIiokzWLUGh3Mm6d5DsNXPkE2eQ5NInou7vruDg766g4QtTmUZDzDCuVAXdj4iIiIiIiIioL8qaNn1G2ru25JZkY9IkGRS6EqznzHezUPCvB2DEpCwMMVVtFzpx+q0rOB8bSLppIKbPFdv5CeocvYLdtaY9QfdT+YcGYozHft7nbPbDNzj4d9/gkljOLRmAMfZzPPoNPquV69wNFW2+IUmb448vjjNPHOcG+36d+lj/0olLPgJz81eUo3z0Pjz+xG7UmzoiIiKi/qCzM/m/VWO3cSyLsrVk1UfWm3V6WZTFU1xZPOSz+uNSN3HiRGyoXShfjYiIMtgDJdtw7NgxZGVlibv8LHGrL/6OPOSdv71O7mGVdacdVdaFyLPULT2Fzh+RX3Ym6XKKQ8RkLqK5PxroCJZIkVxELrN7Be3lE3S/LhHnMfS7WSoB96TYc5w0ANM8kl3nlsgcTYkDQvHMcYpi9xPLk8Tries82e9saXnDMdYUiYiIiIiIiKjv65aeQpLVW0iRvXx2f4OGmKFkcW4aiLl3ySBFJy7s+Qaf7+yM9JpRvWRkUESsO+059CwLk38xECMuWL1x/Aq6X5RKrF2UlbynkK23zum3o9dEnp8M+kgX3u7AkU9UUbNdF+c+A8Q1GaCuydFfXolLcG21SV7/o45eVll637li3WfJe3OpnkIzT2Adk0sTERFRP6N77iQWu41jWfXosYq6FFlv1ull2fvHpSwe8ln9caljTyEiIpL6VE8h6XxtBw7u6USbXBiRhTF3yanpdc8U91nHslAggxSCTE59xBYQki59cgUfvS2/RLMwYorers+SQZpfXnEEyeT5HT2qy0NCzvMbGtLP8ro49/kmek1u0nVu2j77JmbYnbi28nr+XbLE2LkIL74TJTNFsakFp3QlERERUQZJ9G8ld9a/5Dz3VCti1qZ+GCIiyjTyuyLu+yLZF0j8eqtGxoW6LSgkXdp5BR/ZZhxTwYuigZgmg0M3xQR2vivWyV40F77B5/ZeMnafiNcRT0Nu6MvT2ZvcSGbJ7lJzsjfTW2wgSbp0WAfl5DA+FYzzO5Rv3Fy8UF2OmuolWHv3eOQ3ncCWV5hPiIiIiIiIiKg/6dagkEXPONaB3b+7gtNHZeAjCyPukoEhvV7JNfl1RgzAtF9kY67rYyCuRhqgq+1Ss36W18yRo0nmJjJDztrcAkpffIOPficDciYY9yNzHX9semz5DBI1isdpXSQiIiIiIiKifqJHgkIRX3SiofaKGlYmjZjrnlSZYkSGlulk25Eg2Y9MkOzoFe/eVV9EA3JHxXW/cKETbSOiQaLpJS69rk7uxqPL1qF02Sas29qC/LzxKP/ZXITNaiIiIiIiIiLq+3o2KGRYw5oczps6Of37LzsSP5Ilg5YzfJliSoLu1yN0IM153WRC7is4WOvMv+Tqi06c33kFR/5OD+mTQSI5pE/OQnaD5wxk57Fj80as2y+KnH2MiIiIiIiIqF/plqCQnD49LmeQnTVUzO4L2YtFPE8agIIUp7F3MyTgawTdr1vdJKevB07/rkMHdCKP+ITcdkPFe+AZ5BLX+8huHWgaYhJZExEREREREVHmSH9Q6LsDMGaSzhk0/ccyB44zOCSnXp9uTb2+297jpxMNKkiRhTE/cst5k4XceWLfX4jXNDXxOnHBDLMac8+AuPw7uZ6BqqD79Qw9+1gWhqQy65p4H24Q74FM6q2GiMW+D458ROqJiIiIiIiIiDJI1rTpM1wyFHfRdwdg8j0D9GxiHtqOXsFHtfGHHjpvIKYVJQh+XNCzdzU4pli3Ecee/qMB8T2RFD0VvNvMX4H3M6x2t+0R5+U6zXsWCn48EGNGiPb/zr39nq+RsG1am7guMshmn7J+6E0DcP3cxO+DnO3tYMLheLlYumYJFmEfHn+CM5ARERFR/9LZmeyfwp1iG1M0HPuIsrUUqTd11rJ+1q+jymq9XlZl62FtG1nuxMSJE7GhdqF8GSIiymAPlGzDsaPHkJWVpR5yPnldlkXxLP7Y62QMIq6siurvyLruySmkkhtfwcG3O9GmpqKPksGLo79zDwhJchp7a5YyR/4cGfSQ+XPE63oGhCQ145bMl+N8fXnc029/4x3YCbpfT/hCtEHN2uZtyIgsjImZ0c2a9e2gaL/7ecnrmSQ/ExERERF1gfk3WIJ/ykVX6VJkOcE+RESUueK+HmIrPL4/rGodFhLLoqJ7egpRGpkeRkjUoydL5XGSeYe8eyoFxZ5CRERE1H+pnjkJyV47pmg49lE9eqyiKZk6vWz2t9epcrT+m5i6yDbiMXESewoREZGzp5Ds4qN7+ujePrIPkKNe7mCV9YIq6+roeumqzD5GKfhulhr+1fZZohnGxLpm+a+KbpQ3C4uLvbM5EREREREREVHfwqBQHzGkaICa0S12NjGZMLqgxMrD1InTae0lJJ3HB/taVKlw+RLUVJebx52Yr2qJiIiIiIiIqC9iUKi3++IbnDYzo8kZ3ab9IhtzbY9pPxqoZntTCbh/lzgZdlD1mzfi8a0n0NhkKoiIiIiIiIioz2NOoT5CzySWpRJK22chs2Yda/4k0fAyIiIiInITyQPkyeT+sXHsI3P/RIqmZOr0stnfXqfK0XrmFCIiomS6K6cQg0JERERElLEigRxPJnhj49hHBm8iRVMydXrZ7G+vU+VoPYNCRESUDBNNExERERERERFR2qQ9KDR2bNiUiIiIiIiIiIiot2JPISIiIiKigOQIsFhudV7ktroDvyWVvYmIKHPJ7wvx0P95i6x034pBISIiIiIiIiKiDMSgEBERERERERFRBmJQiIiIiIiIiIgoAzEoRERERERERESUgRgUIiIiIiIiIiLKQAwKEREQysELfzMSNbGPJTkIm02IiIiIiIiof2FQqE8ZjUdmPYWPZt2BqaaG+oJsLF3iEmS54dpI8OWxG0wddSO+D0RERERERHYMChH1pC87UG+KUVfw+QVTvFqaW/Ho355DaeTxFerMqn6pt74PREREREREPYhBISIiIiKibpNlnmN06ie51hSJiIgCi36XeH2rRL+P7FswKNSnjMSEIaZI6TFuLh5bU46a6nK8sDjXVKZbB05/aYp2F66g0RSpJ/B9ICIiIiIissuaNn1GWv/nxNixYZw6FT8wo38ajakj52NtQS7CQ0Kmrhn1zTvx+Kcf45CpiZNzMx4pmIfbQ6FIXpP6tsN4v2EHXjx3xtQYI5dgS8EU8fpmOZHmWkwXx43jcbzfHN6EN1tNhYup4thrkxy7vmE9Fp1ytnnqyDtQVlCM2yL7Jb8mU8eWo6YAePXAOrwo2+TWZnF+1mvce+NTeE5c8u1HnsXD5/T6eDIH03I8OOQwntwlztXU2s1fUY7ymWYBLdjy9EZsPGkW02j+90eiXJxI44EWPPphh66UyZ3vH4p8XMa6v/0KO3Sti2yEbxiKh2dmI/+6gabuChrrW/Hy7y+7DIPSwjfkYPHMoSi8zlT42CdqEB77m2tR+OUlPL6p1cf2wY4XnjMCa2cAW16/gI3NoiI0CEsLczA7PFBcF62x/iuX18jG/DlDURIeJK6JqbKOVye2la/lomvvAxER9Uedncn+KdwptjFFw76PW9n1WTzkUqRslmX5G6tOHUs+dL0sT5w0ERtqF8otiYgogz1Qsg3Hjh5DVlYWxF/yP1WWf/Sy9ZB9gmx1cmdT1kXnM3sKBZVzM16etRw1k2XQxAoISSGEQyWoKS7HIzmmKmI0HrmxHB/NKMGDtmCHFB4yBQ9OXo6XR5oKG18BIQ8y2OJ1vOdmPIUtY0ebGqd7RTv1uZkKX3Qi7JrJ9oCQlOiaxPNss3hYQaU3G3apIMFtBQmSbufchNtlO5oPuQaEetKpL6+o56YWE4iQmjvQJJ/FulOqwkVoEB5bMhxrb5fBDysgJA1EfvharP2bEVhq//gpOqHy2tvtARop0T5dkZ7jyQBRzf3XYpEtICTJsjMgpK9J+Qx7QEgyx7t/BB6bk23qnAK/D0RERERERP0Qg0KB3IyXZ5TowEfbYbx6ZD2m73rWPNbjyYbD4iY2hAlD9dYRI+erQIfspfPkgdh9dNeG2yYvwb2qZJzbZNuuFttlXdsulEbqbI/YXkIjl6CmQN6NN2N7Q61jn9Ijso3iRrzgB/GBGrHfc6Kdcj/7uZUe0YEYQPa80XX2XkJTx/4AD6pgkDie/ZocqMWrbbI+hAdnxJyfg7hmBabNLteotMF2fq3v4Tfykg0pRplLIE26t6AYYXkO9v1i7KjdhzoVEQAat77bLb2EpHp7ECLiCj53G84UMQiP3X+tDrR8eRlb3m+xJYJuwboDl9GIgbh+hN7aEp5zLRapYMkV1Nn3ef0rbFHHG4hF4nXny2IadP144hwKr8XaGQPVea573Xmej9ddNttp4Tk5kWuy7nVrO7Pt++KafDkQeXrTOMHeByIiIiIiov6JQaEApo6dh9tkQQZn9m2KGfJ1Bm+e2oRFB9bHD2s6twmlB57FIrHPm62x+6zDkyoulIuJPnrTJDcajxRMUaXtR9bh4VPOoVuHRFsWHTksSiHcHnL2Fpo6ROfWkfvZz+3QuffMPlOwIDYQk3MH1poAlBwC9rD9mrR+jBf3rTeBoSn4qUfvJOm20BQ1JG26yzU6FDPULdJbKHSzrnC4GQtkc9o+xbYEQ+Rwcjeef2IdSpetw6Obz5vK7uIxu5XrTFgm+CELagjXV9j4mT2g0YEdH36FR19vwfOfmSoplIOHZXBFHEsOyXrevk/zZWzc1GICNYNQ4tGbJiVpOl5heJAa0lUqznNHs/M8vYaCNdZfEtuaBUVs+5m4JpvORYeGuUrtfSAiIiIiIuqvGBRK2WgszDXBj8PveecNcgQ0oiKBjZzRuHfkHXj5xnJsmVWOj4p1jhzVWya2h1EQ1tCptl2o8sq5c+6Q6nkUzr3JewiWh3FDYgI7Q3P1UK/mnTonUJwzeLFBBpSSHK+5Ni5HkafWT/C+DDSF5rn0dpqqAnf15z/xfo960mdfofRvTd6ciA5s3HQOpb939oTRsnFr2ARb/ilBTh9HAEUYYYZe1bfGHMsijrlfHy8/PMgxPC+QdB2v/qskgZyo+mOyh5R4vRnX4rE54jXVz41PKb8PRERERERE/ReDQimzZgA7j2OJeqB4kEmYX571FD6asRzPydw7Mm+OIydRmlhBmiHFqCkWx3N9lOgeTzEOtekeM2oomz3YIvMoTda9j062OQM3Vu+i+kueWZ+BS+d1cENsO0lVxEu4fxwr0BTb28nqJXUYv/EbYOp1BuJ6NSSrA6ddgy3uwsN1b5xGkzvHlTXb1nUDMVZVBJeu4yXcP1ZzKx59/RLqvhyIwhkyh9BI1PyNeCyRuYRSDBIRERERERFlMAaFepLM8WMlYW47rPL8yLw5pSZ3jh4+1guc22TaopNRR4JIMo+SrG6u9e591NPO7VDD0sIF86O5inpRgmnqJs2teF727nld51aq+/IKGq+LBole+H4aekERERGlhZpjLJ6e9MVrLRERUTzz3aGZBfEkS45Vrty/cRgUCizV3D9WLxuTvHnfJpXnR+bNOeQx1MxTgp42EVavHDlNfSRZs8djn9swOB2hcg5bMgmrE0wtHx7qkfVZsnovtZ3HUVWRDmew7bxsazTP0dTQjeI4iRNM9x3ZGBOg54tzprIY1pCvNM621dPHi2jWuZWe33QBj5rk1nVfyqFq1+LhdORMIiIiIiIi6scYFErZx3hXxUtCeHBKounQR7uvk4mPHYmpLaMx0ZSS8xGQSpRvJxk1+xjwqkyK7QggxSesthxq/lQHkDyPF018ne48P4dO7VS5kfT09CbnU7IE05Zxc/HYmnLUVJfjhcV6CFzvcBl71AUdiEX/Lse710so27HOyreDcI7HNPDZWDpzkCo11l/2zlVkSTLELO3H8yF8Q4JeQM2X8byVwyhRoIqIiIiIiIgYFArCmvVK5euZtQSPjHTms5k6cgm2zFiOmhtdZsUS+6wde7MtYGS2n7UcDybtEeIMSDnz/cjE1fZ2RPPtPDijHC/LYzqCNWL7seK4xfFTxOv8QCFMiJmVLCFrinjrePa25NyMR+T5qVxM3ZHn52NUySn9h9yIhWP10DG/gaf5JbNQaOYvz797AZaO0+XeYEfdJZOLZyjWLrkWS2+w93zJRviGa/HC/cOx9vs66KI0t6LWCibdPwKP2fcJDcLSJcPN9PGXUZtshq7IrGG2IIx4jfn2z2najueTnO3s9mux9m9G6CFiIWdvoLA45mO3myBUKnmKiIiIiIiIMlDWtOkz0jqUeezYME6dSkd/gF4u5w5smVHs3WNBDl86sM4xE9fUseWoUdO2u2g7jCfPA88VTMH2I8/GT2dvSXhc8Rq7Njny6CQ8piSO++rhTc4Zw5KeG1Av9nu/YUfMdPyjbcEfN/HXxGK1U05H73v2MYeb8XIkcXb8dfAyf0U5ymeaBbRgy9MbsfGkWewNQjl44f6heviVKz0VvHM2rWxbMMaN2z7xwnNGYK2abj5G/VcxM3UFP551DDkdvd/Zx8I35GDxzKEo9DyeoKbxTzBrGxERkdHZmeyfwp1iG1M07Pu4lZ3PZn/xl34Sf6uyrpfLzjpdr5bFY+KkidhQu1BUEBFRJnugZBuOHTuGLJVESPytHrIoa/Syrpf5hWzbyJ1NvVqjC5HngaNGj16lSmkybNh1uHhRdTHo3/5yAjUNR3A66xpM+HYurvuWqUcz6pt/j5/t34q3/mKqjPMX92J7+2jcMtS2vQzKnPhHLDu2B0e+/VcoC+XiZPMOvHPJrI8lj3uhBTcNG4nwt6Jz18sgzT+e2IHfXfra1GjymK+I7Qd/aySGDx2KyH10WzO2n/k9Hv/0/bh24i9taM0J4w6xvZfrvpWLmaFC3NRub+vX2N20Q5xjNkYOHSvaZ6oTXBPLyGGz8dfDhuLLr/ah5qLzHPz5Atk5t4k2i2LzP+P/OP+Frk7i5JmBGH9jHvK/AzRufROV/+J14a+Str9gW92f8cXAARgzOBvfGWzqcQWN9V/j/9n0Nf5ZDhN0+Ab/639fwh+/ysLw4d9Cvq994n15ug1/HJiNm0aL45o6fHkZWw79Gf/rwjemQgp+vOvGDMH3Rg/An860Y9tp+2t6+/LCX/AvkeMNEMeLdnhsFO1774M/oXpneoaqERERXW0jRozA/aVJs0kSEVE/93rNMbS0tDgDPqooa/Syrlehn+g2cmdTr9boQvSZPYXIyfT2wS6Uuiaglkbj3huXq7xDwXv2pN+9Nz4l2uTdG4mIiIgoluqlk5DpuWNj38et7Hy29fyx6lRZ18tlZ52uV8viwZ5CREQkdVdPIeYUIicznXvinDxncPRSkrFHPS3nDvxUjpLzm2CaiIiIiIiIKMMxKESuwgU/UMmiY2dQmyqTRt9o5SnqjqTRqZs6MpoDaXuDV+8mIiIiIiIiIrLj8DGKo4dhmQUvbgmqe5JLMuz65los+vRjs0RERESUmBq2lZQZzmVj3y9ajm5n1eln23Awq06W1bJeF6lTy/ohN5bPHD5GRESSGj529Jge9qWGg+khYWqAWGTZPOQOcWVVUHW6Sj+zpxDFefPTZ1F6ZBe2tzXHJeuVCa1fPbIepfuuYkBIGpobDQjJpNmiTQwIEREREREREfnHnkJERERElJFUj5ykdG8eO/t+0XJ0O6tOP5t68Zd+En/LslrW6yJ1alk/5MbymT2FiIhIYk8hIiIiIiIiIiJKGwaFiIiIiIiIiIgyEINCREREREREREQZiEEhIiIiIiIiIqIMxKAQEREREREREVEGYlCIiIiIiMhVp3n2IGcJ8+S9Tq0xs8C4M/Veq4mIiDy/Z7zq3b9UGBQiIiIiIiIiIspADAoREREREREREWWgrGnTZyTq95qysWPDOHWq3iwRkVJUgVHLCs1CVHv1A7i4xyz4MLisEsOm5aHjYBWaq3aaWsp4OXdgy4xihM1iRNsulO57D4fMIlGqchdXovTuPBxf/wDe3mUqe7txc/HCM7OQbxYjmvbh8Sd2g/9CIbvOhMO/JL0+drPIfuI5ukqUI9WyYC2bZ7OtXGdfH1mWz6pO11vLEydOxIbahaKCiIgy2QMl23Ds6DFkZWVB/CX/U2X5Ry9bDzlQzFYndzZlXXQ+s6cQ9TrZJZUYVVWBwWa5P8jOi7s9EepwOYWAEApKkTMtTxWzR41BtipRzxmNR2Y9hY9m3YGppsavqSPvwMuzyvFRsdjfPLbceAfuzTEbEMWQwZifV1dgillObB7uqt4gtk/yWDHPbO9XGDfMkr9zmtDyua4hIiIiov6FQSHqZcIYPEPchJw9jQ5T0x901FbgbNkD5rESrWdFZarn2LAbl+V+4gat/cDufnV9+q/ReOTGctRMLsZtQ0KmTguHivHcjHK8PNJUdEXre1i061lMjzxqsd2sor7IBGOaTqPZ1CRUPAcTTDGRlsYGU/KrAMNVTGgvPjupa/qEk7vx6LJ1KI08/oA6s4qIiIiInBgUol6mAANHiad+FhRyCnqO9fh6lQwqVeBiLQdA9H6yZ9FyPBiSwaBmbD+yHqWRoM16PNlwWLyjIdwWullvThRhgjFnTuO8rkhsVyV+veyByKNma5OqlkO+7PWvbU7x98a4MRgun/22g4iIiIj6HAaFqHcpmqOGjbXv68f5cjLhHPulkZgwxBT9GDkfD6rtD+PJA+vw8Lkzttw+Z/DmqU1YdGA9pn/6sanLQOPm4rE15aipLscLi3NNJVk9f47/MdjviFB+moZ8Xa+DQqn3MCIiIiKivoKJpgMJ45pVq5Fztgpnq3Yiu6gUOXfeh8Gy94fQcbYOrb+tRLvHv6NlzpzQQqB1dQW+ltsUzMOwn5SI/eU/5AWx/0W3/QvCGHzPQyqvTCSfjDzWO6/j6z1u17xr7ZSyiyow7M5CZJt91NClbbVord3p2csltfMT61bZ1iUk9isT+6myObdR9joXBaUIrbwP2Qf1NUgP8T6UOd+HjoNvoPWtGrTny4TS+dFzdxF3fbx4JKfG2TfQvKrGRy+jYO3Un5PZtvekSey3V++XqL0BTB1bjpoC4NUD6/Biq6jIuRmPiM/L7aGQaL1W31yLxz/9OD5Zstu2bYfxm8Ob8KZ8LU+jMXXkfKwtyEU4MqSrWRxnZ/xxRi7BloIpYjuznIhoZzTAY3oJif22H3kWD58z1SmQeYjKCuSwM1Ph1UZXN+Pl4hLclkKi6SDH69L7J8xfUY7ymWYBLdjy9EZs7KZhSjphsvgt8nQFPpDHGDcPd/2sBBPyzOe8qQ7vvlKJwy7Hzy2uwMJ7CnXvHaUJx7fW4sPNOxP2oMkVx7ihRBxjZp7ucSO07H8D216qidlPtGWNrS0JiXYuE+00S/FkfqEyTEi6nSWMKSsewi0xbfxjbQ2a53RHkmnxc1c8Gw/fcx3y8yJHROP+Orz80hHPJNDh4rlYfM8sFEYuUfJ9oibjservoTCFRNNBjhdevBRrxWcs8jkeNxlLSwoxe+bwSNLrxv1/8Nlm6ik64XMien3sZpH9VDJoi0kQLUuqYC2bZ7OtTiQdXR9Zls+qTtdby0w0TUREEhNN9yYFczFolLjBxhhcUyZu8JdFAy1S9qhCDFtZiWvEzZKbbPUP/0Z0iBtslVR5ZZkzKCJfK+5GvQKhlavVzFOOBMPiWDnLViNUEjfvUBfbKYM1G8Q+9oCQlIfBC8sQWlXqmeg4pfMrGCNe37YuEcdwq3q0H5BDJPKR7XGd5c3ONT+5T7SzDhfTFRCSQaaq+Pche9p96loOmyWDOPrcvdivTyLuyanF++knn1DQdsrPmfqc2N8T8RrWfkUun7M0kQGGj2aUqOFW9qPIcmxAwXPbIVPw3IynsGXsaFMTI+dmvDxrOWomy0CPPcePeJ1QCWqKy/FITPJnXwGhWDk34Xa132G8m3JASCe01nmITJXi3cauSc/xUnn/rgbde6YRF8TNukri/EyZMwgji3EBIRms2YDS5faAkJSHCXeXoXRNKdz7N8lASyVKxTEKbcEWafjM+1BaXYlbx5kKSQ7T8hUQEpLlGbKGfO3/MHlAaFwpfli9Ggtc2rjgmQrMUUmm63AsXQGhcZPx2JolWLt8vC0gJA1H/szvYW31Uiy1XxclF0vXlIt97AEaKdE+XZGe48kAUc0z38MiW0BIkmUGhPo+HdDxQ/9j241ao17G72sREREJ3l8tNl4bWd85zu8e9hQKwtGDownt1b9C6556faOuesXIIIgou/ZOMT1c8Aaa3xmjgi5yevGLb+00N+hhDC4C2u09f2zHU9uK19RBgTCyS+5HaKFc1xTf6yNwO8W6KrFO7iN7BdVZbRPEfteI/XLEfu7TqQc4vwhzXL89Ycz5dWxbiWa3HDvJ1qfMui6CaOPF30Z7zqgeVeJYKgCTsP3mNVw/G0mY80k+jX3Qdlq9r/Rn5WLkPRKfs6L7zX4un7Mu0D1NQtjefBi3haYAbYfx5OEdeLP1jNliNKbmnMEhe8+fkUvw0WQ5J1MztjfsRNWpaC+UqWLdWhnwEesivVciTO8ZWRTHebVhB148Fz3OvWPn46cFU3DSs2dPCr1vrDY6eg/5Y10TdX5H/kENO1NkL5wpJdEhabs24U21wo3/tnbleIHePzs5fOxn+ua7cesmPLq5uzLXhHHrmtUoFL+Xat4ao4I8LfursK12J86rQFAYU4rFWe6y/56wetyYXkEfWtsK4+bh1p+VqXbH96Ixx1IBBbHv+l/hQ/G6+szEcRbfj1vuLsTwJtGWJ2J7DEnmuJ7rkyiuwM/l+W1dmSSHkHV+gjjWu6/URHpJqZ5RMhAmF4K2I47prSOLTSew5a292LjLetVczF88GyV3j0fT+nV43nY9de8b2ZIW1K1/V6wz+8heOD/7Hhap63wC65a9gx1qhRv/PYW6cjxr37r9J1A4c7w6z3Wv7MWOk9HzDI87j/q44CNdTckDPHq9fTPHPqo3j8X08JElU9DP9p4/pk6W1bJeF6lTy7rOWmZPISIiklRPoWPHEO0FJJ/kkrVse8gd4sqqYHtWBfYUCiLSg0PeVMukv1agRRI3qRd/+4Zedp023CQZxmxxk50vbr5XolkGeSI32fUxARNxgy9uxiUZDFDbqiVJHLe2Es3bZI+ZPAwqtP//+eDtHFwmAwp1uChu/i/KYWL2AIDY72uzX3ae83haqudnI3sNyWe/CZj3fKiGjWXnuXUVMtdNBkXSlJRZXxdBBnRWOYdSdewR70O1md8mUfvNOXY0pR5V0e9nE6406mUvXW7n2b0qeBglPjdyv7KV6jORroCQnQwo1Desx/R9cuiXFVCQYgMKo/FIgZ6ke/uRdXjYFhCSDp3bhEVHZP+IEG4POXsLTR07zwSEZKBkky0gJEVz/AQZ6hVr6pCA+XFy7sBaE6CRQa1IgEZq/Rgv7luPV9vkwhT81Ks3VCrSdDz/71+Mk7vx/BN6hqjuCwhJJnGz+L20cHk+jq9fiddesgV5xGfcGRASZ7zCDMF6ugJvy2Fi9hv5kzvxwStvoEUUh+c7fw/mLn5IB4RkMGWZ2DcSEJLEcTZX4rWnq1QQxvWMu5jcOTdf/95vaUz8e0+fn7C/Cr9+IhoQks7vEm1cX6fOL11JpsOLC01ASAZm3rEFhKTz2LH5HTz69CZHQEgGDR82ARo5JCsSoJFOHsHGJzZhi8qpPR4l6chJlabjyYCQDHKWivOMBoQkBoSIiIio92FQKAA9/KcJrb/16A3SkDwogFF56KjWgZpEsktK1A2+7O3i1Tuko26vOl5scCRYO+dh0DT5LIeWbcCoKpeHzNGjtnWR4vk55Ot9/SdgbsAVOUW7S/DNum7t7/joceRHQSly5HWRAbYkPXwStt+cY0dTCtdFCZup+vcmzuvTpXbWo0Ndz/swrGyey7C8+sTH7ormWiw6ZQ8meLCGZbXtQpVX8ObcITUdezj3JkzVNcJoLMw1wY/DCXrOOAIaV8HQXPFOC807Y3o5Wc7gxQY9KMh5fgGl63h+37+rxQq0iN+JLet1oCaxeZioch0VYsEzG/DzapfHM/fp13SYhzl3y9+7dXg3Ue+akztdcxcpJrlzsCTTZir7ZEO+xpXiFnl+MnD1kvdxVHgkLUmmc3HrLBNseSVBTx1HAEW43gy92l/nkWvqPDa+dUKV8mdN0p/lrkjX8fb/oZuDnERERETpw6BQysImx07ynDCurKBAgiCPnRXYuVyXehAhUDvNzFiBpXh+doNVnpvkPWGirCDGbAy2BzAKSjFsobhucthaim3wkl04W59Xgnw+fnry6HOsw+WU2+VvGvuutrO9SrxvB5uQPa0MIRUUrMSwknnqNbtT/SWf3XOsIMaQYtQUP4WPXB9miJiDNXPYeRxL1HMlTQ61mRvCoSNTCtxYPYwSXo9L5/VNtdh2kqoILl3H8/3+XS3WLFpbV/pLmGxm/0pZKvl8PEy5Rf8eDDZzmOkRlSTvUO6c2fp67NvtGbjy2+PInxG4XrYLX+J0Cj1lwvnXqefGxgvq2dXnLeJbTsgbjrGqIrh0HS/h/kRERES9DINCKTM35wf10CVXCYZBWYEPf0Een4GdSO8T+0bB2mkNOZND1c6WJX645elJ7fzsggWx2vfJoVB5GKibLXRDcmkheXDO9ORJ2H5zjkkCO658TmPf9XbWo72qAmdXr8TFbXWinSaxuAoOdfn/w2eONAZuqOusQMvxD/39XrICIjJf0K+XJX448vZ0eQr3MEaoUXo6IXbKfA49s6as974ePnscEREREVGfx6BQqszNeaKcMIPv0cOr4m/gu9jLyFUY19wpb3hkm2z/wO9SO2VwIUgAoCvn5yOI5aZRB1gi7S26XyXB7tj2emqv02V+evL46+3jxm8+oeR8tqGhHu0yX5UMAK6uQvtZGRx6yHNGvR5jBVtkAuddzyZ+uCZYzsXErs7c5SfQ0/oJ3u9C7p/w0JGm5MLqLdV2HkdVRdf19PF6VvBAS2y+oO5nevoE7WnU5aCUxV+Po9RdhzEBZgrLzx9hSi6sIV9NLTilKrqup49HREREdDUxKJQiqyeNZ04YObuTysnjNkQo1aCAGR6FQgwqUhVxskseUkEQmUOm1Xa8oO3saNJRh+wZc3UvIhfZRWGPdcGDHpFeS6lq2I3L4hrp9poAWRqTSzvZeyTZhaPJnROdu49AnRfdA8hvsC1IO+fpPEJmyUEmJX8ntkfWVWIFW0LzUpyW/WO8q+5uQ3hwyh3eQ7pyRvsY7uUnsHQG287r2+lwwQ+82ypn+BoZDRodav5UB708zy+aaLv+/CeJZ0CTkgSw0n68VMnZx9aUo6a6HC+kI1Gwq9QDHOcb9e/B4bPminfbXW5xOH7d56d18um774e+ai7GzfN8zUhPn4BS6xGVh+HXm6KDnE7fJKFOlmTa9/t3BHv2y+fhWPSzueIIHsaZAKRR/+EJ8VtPmFnoMQ18LpbeM16VGvcd1Z/lRJIMMUv78YiIiIj6AAaFUqRvzoHByzYg5Mi1Im+4KyNTwLdXV8b3VEkwrMyLHh4lj1eJYUW2fy7LqeHF8UIyd464CYhNJh24nWZGL5lsOLSq1JGrJ9s65rLVyHELUgU4vzjTSnCN7Tz1MUU7zHI8K6/QGAw2AbK0JZe26WhSU86I61nhvCZFpRi2arUJsPkL+MgAVuQ1CsT7YX9fXVk9sAqRYxvClV00z5lLSQjaTpWYW+YRWqU/Z47gkHgPhpneaFeflfg4hAdnlOPlsTdjqiOYIaeWX4ItxUtwr6mxvNmwS9/EyXxEs5Y4gjFyPzmd/ZYZy1Fz482mLpYzsHSv/bg54riO1wMOnfoHM3OXra1qjWQdrwQPTrYFjVrfw2+sY8h97K8pA0izlkemiP9NwsTO53A80lPJdlzxGo52p+14wcwv0dPRS/l3L/C4Ee+iILN57foQx+Vz3n0oXVOKKbZ25crp6FdUonT5aswpNpWWk7txXP0IFmLBmgqxn+1nW5SniP1+/kwZFi5O8jM/swS3Fke30ccU7TDL7vz3iGpu1L8nJiyXbVRFJbe4FHetWY0FKsl28h5Hqbx/O2r36YBL3iysXXMnlhbbg0i5CBffiReeWYK1KyabOkFcz1ormPTMUjxm30dOEb9mSWSK+NqEiZ0v4PPIrGGTo4En8Rrz7W1O2/GIiIiI+o6sadNndJpyWowdG8apU/31/5+FcY24sc5BE2SuFX2jHk8mWXbLtyN758hgjOd6D4PLNkRu5uM1oTVumvD0tNNLh0zg7Jga3wh4fppps0dbZY4jr6TR2SVWcEyQ07CnMZdQ1DwMqzK9bGKdrcPFA/kYtlDcYyecst3jNeRMYasSB7Ic52gTf12Ct9PrGBHi2soZzdIZcJs6thw1BSE1nXkqs1dZ+3lqO4xXD2+Kn1Er5w5smVEcvSmMo6dmd5+JS0i4/2E8uWsT3jRL2mhbYMVNs55a35GnOfk+CdtoeF4jOfTu04/NghT8eEHfP8v8FeUoNwEImGnA3Wd96oLiCvx8eaFKMu3I/5OM2c9Ly/4qbJPT2pvliHGl+KHrzGRay/43xH5eM5OFceua1ZFASyyZ4yiaKDvxthFyhrG4mdDm4a5q0xsoVlMd3t2XjwV3A3VPV+CDBO9Hyu/fuLl44ZlZeviVK7fXyLUFY9z4+9yEFy/FWjXdfIz9f0DpS0fMghT8eNYx5HT0nH2s7+jsTPbP4E6xjSkajn1E2Vqy11tl/Wxew2yr6mRZLet1kTq1rOus5YkTJ2JDrfjyJiKijPZAyTYcO3YMWfJPVhbEX/I/tazL1sNZJ1n1ak3kWa8bOGr06FWqlCbDhl2Hixe/NEv9zc0Y8h9mI/v43+PcL/8RV8behOxR34l0t+o4+Ab+9Ntn8KcP3c8/e/ZfY+ik7+DP//xbXD5tKn3o+OPruHw+jG/n5WPANabybBPad/09LlauR/tXpi6ia+3E6Q/QevALZE++HtnXfMdU2vb7p1P4xtTZBT0/7Uv8+X/WIUu09duirZaOs3X408u/kKOGPH3TOgKD500R51eHi0mCK8GdwmVxTbKGXR9tn3wP/scaXHztHXxz40Jx7o1o2/BBguPL1/iWuK5TxHXVNfL82t55F+2nE//MfPPpEfU+Do5cG3HsbX+P1rj3Ing7v/n09+p9l/sOsH9exP5/lvvXHkz7tR05bDb+ethQfPnVPtRc/NrUJnf+4l68cqEFg781EsOHDoWeM0hoa8b2M7/H45++j7f+Yurs/nICNQ1HcDrrGkz4di6u+5apRzPqm3+Pn+3f6r6fRe4vjnvTsJEIf2uoqQTq2w7jH0/swO8uxZ7D19jdtAPb27MxcmiObR95vP345ZFNeCnurbfvM1bsY6r9ttGQ12h71mjcMkycp6lTwbIzh7Db0c7gxwv6/llOnhmI8TfmIV98VBu3vonKf7lk1qRP7ty/xr+a/B00bf8tPkvc8cWp4QN8uP8L5N54PYZ/J/o7SQZ1/vmVZ/D+tlNwbe3F/4WPa8XvonE3YUTedxCJtTXVoa7m13h78z+776d8ic//qQ4Dxb75Yl9Li9j3n3/5C+y2x/LE7/lp/0nPIpbQ0ffwP/fEZr85hc/EuQ287vrocZqacLxmDba9+g7a/mqhuGaN+N//9QPxKfCW8vt38XNsqz2BL8TPwZjvDEf0srag8f/f3t2FbnLdBRw/6yZtIi3kpdA2Epre5MJStUpBEHLVm1LIjQTSu4B3e1PwyuYmFrEVxYIIsVcSFWywepErEV/QxRrBklCMAbVpkmoTS9PurrvWbF5cz/ucc+bMnPM8c+b85/nP9/PMzHmdc87MLnn+88uzz//5r4tf//zfib+/Zqu8H4kX/vqfxDe+f1HcfZ+Zy5g7Z+zqiy+Ib9z+AfGTD8p5bZ14/WXxzN++JF74j3Ddx89318c+Lj714J3i+r//i/iLF9v/XcZ+3XPPPeIXH+XXFgDA3v3Z0y+JK1eu6ICPDujYQI8qm7zb4zrF1esWn9o2Pil0gPsfFfc+/rAQR30SpqNTWWcre7teAADQhPkkzxz7qZ1AdI7+NI/LDvUub9Lwkz+2TuV12bT5Ol02da7MJ4UAAMpanxTiO4UOcNvPfVJ/18rklzdvxKmsswn1fTePPyxuW+3LpQEAAAAAOJ8ICh3AfHlzi18Lvq5TWedR7h++zUV9efK9j6vvzxl/0TYAAAAAAJhHUKia+w1Qtb8W/KycyjqP8YB43y99UXzw9/5Y7/c+9rD+RNSbT819uTMAAAAAAMghKFTtfnFRBVuW/Lr1Lk5lncupL2m+9sXp30oGAAAAAACm8UXTAAAA2CXzRdBz7Jc+B6Jz9JdBu+xQ7/ImDb842tapvC6bNl+ny6bOlfmiaQCAwhdNAwAAAGfM/RBdpiI7M+wP5XG2dmwAAJTc+0ZcN+4R1xAUAgAAAAAA2KHmQSH+6RgAAAAAAMD28UkhAAAAAACAHSIoBAAAAAAAsEMEhQAAAAAAAHaIoBAAAAAAAMAOERQCAAAAAADYoVWCQg997pJ4+im3f1Z8+UufFg99xDYCAAAAAADgzHX4pNDd4r4Pf1Rc+sKnxUO2BgAAADh5Fy7YzDK3bGpckC+dAAAwyb9NyMxhbxnxu84qQaHLv/OkePQxuz/xV+KZ11XtXeIn+LQQAAAAAADAJqz/SaFX/008+9wVWwAAAAAAAMAWdPmi6Vdeu2pzAAAAAAAA2IIuQaEH7rvL5gAAAIBz4lb8vQyx+m94MD1z/e33CwEA4Kg3hvTNQZaPfb/oEhQyrorvvmqzAAAAwDly+HdOmxP0UR9MgGkoAwAwUG8N+f9VcOibRty/Y1AIAAAAOOf8p4fmPkWUE/yQbk9VNe+8+6744Q/eNBUAgF1S7wPvvPOuLR2oEDPqGBT6qLj0pZ8XD/EbyAAAAHDO+FiQ/8hQ8lP47A/lQaPK6qKpu/nmTfHyt6/rPABgn15+6bp486b7HwT2PUMmNmeEhbBt9P8o4oo+XzT9tb8UTz5/Rbz24Z8Vl75wSTz91CXx5Uc+YFsBAACAcyr5YVz/kB79FD9Ifp7Xbr51U7zyrWu2BADYo1deuibeuvmWzpv3B/su4d84hneQqF0ZZYMKqes/H7vPpgAAAMB5MvmdQr5+okNYnfaVyY3rN8Qzf/pt8V+v/Y+pAwDsivrvv3ofuHHjRvJWYgpDlfnGodEHg3yPC5m2XkGhX/ikuPSJu4V4/WXx5BN/Ih597Enxy197wzYCAAAAp+FW+BvHCt8uPfwYHtAFUxMdfb0pu+Ttt98W3/veG+IPf/9fTQUAYFf+SP73X70PqPcDTb4/2LcIyRR8eWiI8mG1Epa7BIXMr6S/Ip75yp+Ly68SDAIAAMBeDD96pz+Uu4rRD+u6Qh1My9VrV8Wzl78jfuvXnuMTQwCwE+q/978p/7v/9cuvimv/bf4ZsfkskNzNlpH//WSOaws/MXTxgx/60K/a/Gru+tjHxacevCr+5g++Jfit9AAAADgF4YeCDuF/IM/+ZG4qw2MorNF5e7h+44b47n9eF/9w+Q1x6/+E+N8fvSPuuPOiuPPHb1MdAADngPotYy++8EPx7OXXxe/+9jfFP3/zO+IHb/zANMr3Ax3yuSCPejeVKlVlk9c9bB9dY/KuLkl18lM//TNHvt3Ve+CRz4rf+IwQzzzxVfFVokIAAADYgOifgmXk2kd1suxqfJuvk6nOxKnu5/ro1LYHeTPWuP72228T73/f+8V73vseccd77xAXL/6YbNFdE6OKkWKP8hCVlg/UZClVgzS76EX6XW/JNu5HO+Yh+Mw1WMZGrkSqWMlmrrfRKE2GSQaRRVWjfu38zZtviptvvaW/Q+jtt9/R8/ngTpQ3ZV2j8jpr6nQpak9SnegjQSEAAADsUy7oE8q1j+p0wMZlbW5UZwI6rhzXmTSqkwf90g2mTb3MFtSbg09Duq6k0KXFGDXazFMeo8FS+11vLxtayskwz9EnwT76L1MYom6G9dehtLhe84mbhY5ZqyzqOjm/WoLJm1SvydeF7WlepmoolTeZoc6XTcmVlT6/kv61qzYHAAAAnHP2B+1BXDYl+0N5dEzJWtWgE5vXRZNP02ivkZ6T7Grc0kttxb0gHG/qpbbZPVsZ7zWvovGw470gnO/YVzPp2tnLewPhn+War6L02jJ7pira87XJnqk6dA+va+pVlIyZ3Wvkzgv2cE1TL7WFu6tTxUFS4YvjoxOXAr7BZoL3qY5fNA0AAACcX6NYkJRW6XKmn2tw7faxQYtzutGntqDL0UsuprgXXmor7WH/qZfaZvcK4Xi5l9pa7OGYR7/UODO77LJ4D2bbxauVcMyzfFUJ/ryP3XN//6K94pU/Mdzzc0d7hXDO3KtKOm+yh+NNvdRW2sP+uZfaSnvYX73UZht8WVf5vCr5Spm6jBRUe6M6M0LO+kGhjzwoHvnM3bYAAAAAnC4VTKnhe9lMXHaVJjWJ/YE9avcHnbji8ADhk+Ook2d2NU/ppbbSHvbPvuQNKO2y2+wuezV5qW3xnq0c9rpX7sxhz1ae8l4Q3pklL7VtYdd/pUt7/tRgL79yZ0V7pmq0F4TzLXmpbW7P/XdhtBdeaivtYf+pl9rm9rDv1GvM1OqjHUNelDp6Lu/rdL8ok2uMqoLEW+U7hR763CVx6RO24Lz+nPiVz/+jeMUWAQAAgLNkvsdn2lR7VK+/78eReVfw9bZuqqzTuM6Mb+t0KjN6s6ntZ/q7toQ5eZYdZZmKIYrzNFlG1UK6aHJfSzpdS51NLWah9HH5DHVYSj44caBG6+yxlqo5qroUJ6oQd9IledBj6yCXy8d1uuSCRcW6NNUZ38/p8M/HrojXnn9OPPkVAkIAAAA4HcHPzNOKnWy775aWlbjO/wBvSma3dZrs4Io6Z7ZoH1VkdnXu3KtKMmZuD8fMvdS2dA/Hm3yp+1bYZbfFuxxp8asomfNsd3lYe89PfPieGzva86edxR7+fVjrpbalezjekpfalu7heLmX2kp72H/qVZYMmtnTGnXQtWpzFZqpM4LZfXVuRa5u3JLSf+17/PYxAAAAYGumPgk0uJX9wE163lAO+suM72Xzvl9UdufYNGpL+ug2mdFbJg0lxZzROamKMWoU56kw3OMFGl1PSYvr7bXWFppc70bkHq83q8FSm1xvp1umg7YLVV1v1TTznY4ZQq9Nb2FqV6zSoM5UxW26NVfnyjbVSZiXCUEhAAAA7FJNoCHXJ60Lyz5vU32UeZWGbUNZ7mbz7a7eJKqv6RCmpqst2/NCum9JoUuLMWpUzVNStdQG89TYyj2p0Wmac8U8S6/OPsavq8EUzda5lbXYYMmcYo+KZYzWKou6TlfLXFA2qT1DpSYjU53R6bgtSXUypI4+l6AQAAAA9igXTBmTj+eZbtG5Mj+Ugv5BfRToSVPXL0ndOWab6BvUH8qNMKliyOIYNZoM0WAQpXhLGs1T0mmareh1X+0j8fnQ6VKK96zROpr82TQZomKQ4i05YiHyFBPcsecGARwVw9Eln8ZtttaWXd4cfLvJ+H5DItsICgEAAGCP+geFgvNcW5K6QJDplqS2z2QaGdeMFLrkRh2p6FKyqXlaOKW1nopWt8M8C58L9tF/mU73o9daNzNP1TLiTrrkAzqZ1GR0qmtNhUxcn6HelMepTsK8KRAUAgAAwD71DAoNedc+9NNjpe1T5Zk0FJcmJOccw86+TMUQ5S5NBmmiyT1pYTPL2MhCGrGP2Ms0GKKFbV3L/EBV0xQ6NbleZY15MkGcYip3m1XH6VQn+igTkyq+naAQAAAA9qg2KKSPSdeqoJAU9jP5od23yVTnolTm9CZftptrd+O4drslxjUpP+6k8hg1XUrMVS3UbKmFXg2W2kKTe4ZNs4/y62owRbN19lhLs6W2mCfupEvyoMe+YGcIUpdMtedTc4gDQeM8QSEAAADsUhTYmWT6pF3Tc8Ny1CbzvuTyvk6mtlGfM6pPU9svqDebSUNJcUKhV8Ugeu6lmgzRYBBl+S2RGq1lTocpcMaGZ/fV2NDBvA7rUKrWUlIcojxH1SoKnY66FnmKPk+fqgI5rqwrbGJHloXip4R04vrY1BR0XiEoBAAAgF1LAzt5pk/adXSuLLuayaCQzJkmlwZ9Xb/aVB5lVqdmM7VeUswpd2kySLd5Skb3aC0dpqmbotP1lmxkGVWG5+WVlSfqspQGk9jww/qqppnvFMRDFmlyzckQekxdNw7s1KYmcak++tQfk3Z9JCgEAACAPaoLCikuADOYCwopYfuQD8bx/V2dTTP1ZnOpqsr3Cbkei1QM0W+eAnMjVtfkelvYyDJa2crlmEfkjeiwGBtOWF/VNPOdGgwhlUc5s3l0xRDEMYlLzUG16ZoksDNKdRL3MXmTKlGeoBAAAAD2aElQSEnPj8vBOTIztLj6od2cl+nv0uAcu+XbQkkxp9jFDLw6dyWzGiylap4WOkzT7VqwWfbRf5kGQ9QM0mka2aXXPZnvdNwQ46COLepDvm2cDklSF+ZtuzsSFAIAAMAuHRIU0seke3VQSBraZGo2VelGtn2Dc1xbTR91dHVWUszzAx3PrWCRiiHKXRqsQ+lyOY3WWtJpGhzBPI93MD9R1TI6rdWGMJYpDlGeo809OWIeXSHvgk310dXZQpqaxKX6mPTxB18/JEM9QSEAAADsUuug0BCkUYLgjRK2+XzQx9Vl2vw8QZvddN40m5KXFHPKXZoM0maekgZDKO4Or2o7lyt1uN7dMQ/bS7UZpaBqkvlOzdbZYCAbClnGBk6WqBph1EmuXtcNAR1/PT6Yk6b6aPsndaYouXpfMcoTFAIAAMBuHRIYSrvmzg3ronaZD1qCsYa86+/PC89xeV8nj2bz+VBSzHPzTKgao7LXrIohyl2aDNJEn2kazdLpnuzK8Ly9ULOBJq0/g1U10XynBkNIba44iKlMKM+T7WEHNskQ7IlTf5BVSWoKJm8KJq8P0/UEhQAAALBbucBOXhjIMbLn+qCNkpwTtvl82Mflh9Ru2jhYFLbbNmsYc4mKQZp0aTNPSd0QDSYq6TCF0mmaCttZSZl5WF5bn1mkJhPND9LsWray1gadjroUFZzRqTmYxIyUBn1sF30wTUn/ibzi+vujrCAoBAAAgN06JCikj0n30fk+YGOk7ePAjpTLZ9tl6iqDOrsdzg+WVzfmUTPHKoYod2mwDqUwTJtZGq21pNM0OMLwjL6y+YmqltFkrcsHabPWJhdTMc3h8+gz7MEkZgwXxKmtG+dNqoT1iikSFAIAAMCOLQ0KKZOBHyss5/NBsEca18uD2QxZaapdYEgKB5Di0rEqRmnSZflqk8tfoNlAy7CMRK+VDA/MU8o9NqTLYhvdsyZrnR+kbh1NFlI0msXOq48qUGNTnQQHU2Xrc+06CetNXokCRPpg+xEUAgAAwF6lAZx5cfDGGY0hy3FNcF7UNl1vt6A+qJNHf15UHxrXpIYxVtZgojZLbbCOXves0RUvtpFlbMrwXH0C5hdbdSlNrnf5IG3W2uRiGk0Td9Kl4WDjNfkgj21yB9/X5E2qmOpxHyVqIygEAACAvWoRFFKicWQ+7Ra2x3O6MeXBbFYwlx8v7BOuxVd6SXFCXa9ZFUOUuzQZpKjBEFKbUYo2c71Yw/BovkCTQWosn6jf9TZYa695bOrpClPrAjhDVfoJoSCvD/P1ymwbQSEAAADsWX1gyPTLdR+N4QM5Ti7IY/lyGOiRwn5BH7sZYX0oKR6jboiKXoUuDZZaaflaa/S5nn53rYutXM7wnHwCyovtcjlVk/S5sUGcY4FO93U0iKko/pOwoUFz5bCPUvNdQg5BIQAAAOxafVBISQI3gWgcH6xxkvOi9qBt7rywzVbq4+icWoWzKgY9bt5Ug1G6rbWFPtfbwnbu2ekYHrVXVjVRt9XM6rfU+UGa3Y3iQIfPpM+wgZrJvCnovJILIOmjrXdG5+lDUCYoBAAAgD1bJSikjII18blx/7AtnWOizWairk48QFa5R42KUQpduq2jRoNhGq1kI87X1bQRP3Cfsqor6Xa5yycqjtDpguumGffyNS7Yo5NMPj5k2kxeCduUtF0hKAQAAIBdOzQopI+ZU8pBoUKfqH8YCJIm22Qm7GdlqjLme0Xzr6piogZr6XY5G1lsv+vFoeJH8hU1mWh+kG1dy/LVtJnm8HXoM4ZDdaAnbAvzztQXT4cICgEAAGDXDgsKKUnAJlAODI3PHc6RqdmM9NyonIyTDlrh8DNyKkYpdNnKOlrpNE2F7awEqfGD+Vlosopml7L+PcnEQzKWr+OoEaLAjj/YrMkrYdkkQVtygWG7ycbtijqHoBAAAAB277DA0Diw42THkXVhbTFwFJbn2lTObBn52kihS8UIjZzSWmuczmK3dd/Oh/Fj90qqJuq2msWKK+10vU3u2JFr1TXDwWaHfmE5DPgoYZtSancICgEAAADSoUEhfZw4JTdWXHdrfK6siKqicto/KafnViucddygI42GKaiYpcFC+lzLluzvisvGD9anqsmVVA2yjXvWbqntr0ePOBfUCcomG7Tpw1BWqv7ZmK0jKAQAAIDdOywopKSBmsHUWKXA0Og8WR5qZM5sgXCMuCUt5lR0qdBnojZrbaHTSs7VPUNq/Hi+kuJE3VayWJOVZgIja6iaZdTJVOjjKKDjDxPtQ1kxxVKfoJ2gEAAAACAfotOgzCzTd+qU7FhRkEfJBJbSPlFZ5swWyNXVmj8rdwnrqJio01q6XXIX5+hqWl1K/Fy8ki6TdNPtappMtHyQqhGKnQ5fhz5jOGhpncmm7UHZVOi8k/ZxCAoBAAAAicOCQkomqBNYJzAkjcZQklHHHVZSMVGDtXS7nNJM/RYyayPLwIrGj/FH2M4gi1Wtotipz7Uct9a4QpeGg80OfdKyEgZ6lFwfZdSPoBAAAAAgH7QPjqSY/lOn1QWFlIrA0KiPLJhtwnSLV+hSMUJHyxe7retZakNXc55u7Pj5eSXdJlpdsyspDrSde9ZmqflOunY4aKY4XVZMcb6PQ1AIAAAAmLD1wJDdrLTcWsXIDSZfb/2pbSy23/XiPMs/7h9oO4M0UVxJs6Wuc8161OGg1QR7lgSEFIJCAAAAgHV4UEjJBHQCiwJDStRX5swWGFWkxTPWYDWFIbZ1vS10uqJzdONqLiX/mNxYl0mUbhN1Ubyaqss9nXsyWqmuGGqHYlCXC+gkfRRTles7rlMICgEAAACB1p8WUtoGhhxZY7YjFc6sGPj4uc9Cp9U2mOa07ivOQv7x/kDbGWQzqq6m2Om4e6LPGg6eqRqPeUhASCEoBAAAAFQ6JjA0d8rkeBPBnmz3ib52OyMVMzdY3Nld31ad0B05pT+8/DPzGdnUYs5ck7tRNcjZ3Hc963DwTNV4Ta0CQgpBIQAAACDR7dNCykSwZ3Ksif6RqXMDFV06abCSk7pe4PyYDjUcqDhQs5kWa7KS0SBxhS5NBnj0Ueed+f75ekU1ERQCAAAAMs4+MKRMBIcm+x+iMMLyCbRGwzSwkZV0WsZ27jtS04/ojTWZqNtqV1d1JRu4Z/rsTCAnFwxSpvorpYCQTgkKAQAAAGOHB4WUmU/4WM0CQ8rkOVtSuiE2XWD792CruHPtTT+EY1qTu1YcZNt/Nnp1k8EdfdR5x5eOCAgpbkyCQgAAAMCENT4tpMwFhnSij6n54FBoqtv51eiKO9y4/f3Z4KzMhwQqNRmkRreJVnfUlRwQDFJM9fRMdQEh5YL4f/wkbLZ42bMXAAAAAElFTkSuQmCC;" vertex="1" parent="1">
          <mxGeometry x="1044.5" y="240" width="1157" height="457" as="geometry" />
        </mxCell>
      </root>
    </mxGraphModel>
  </diagram>
</mxfile>
